<?xml version="1.0" standalone="no"?>
<!DOCTYPE svg PUBLIC "-//W3C//DTD SVG 1.1//EN" "http://www.w3.org/Graphics/SVG/1.1/DTD/svg11.dtd" >
<svg xmlns="http://www.w3.org/2000/svg">
<metadata></metadata>
<defs>
<font id="bremenbold" horiz-adv-x="1556" >
<font-face units-per-em="2048" ascent="1638" descent="-410" />
<missing-glyph horiz-adv-x="757" />
<glyph unicode="&#xfb01;" horiz-adv-x="1871" d="M154 59q8 166 12 326t4 320t-4 316.5t-12 311.5l69 68q111 -4 217.5 -7t216.5 -3q111 0 219.5 3t219.5 7l-78 -160q-76 4 -150.5 6t-150.5 2h-77t-77 -2l-10 -487q78 53 151.5 107.5t147.5 113.5q53 -70 111.5 -138.5t123.5 -135.5q-74 -53 -145.5 -108.5t-138.5 -115.5 q-59 68 -122 132.5t-128 127.5q0 -188 10 -372.5t31 -370.5q-98 6 -193 6q-94 0 -182 -6zM1280 0q8 174 12 344t4 336t-4 330t-12 323l69 66q43 -4 87 -6t90 -2q47 0 92 2t92 6q-8 -168 -11.5 -335t-3.5 -335t3.5 -335t11.5 -335l-64 -59q-92 6 -186 6q-92 0 -180 -6z" />
<glyph unicode="&#xfb02;" horiz-adv-x="2183" d="M154 59q8 166 12 326t4 320t-4 316.5t-12 311.5l69 68q111 -4 217.5 -7t216.5 -3q111 0 219.5 3t219.5 7l-78 -160q-76 4 -150.5 6t-150.5 2h-77t-77 -2l-10 -487q78 53 151.5 107.5t147.5 113.5q53 -70 111.5 -138.5t123.5 -135.5q-74 -53 -145.5 -108.5t-138.5 -115.5 q-59 68 -122 132.5t-128 127.5q0 -188 10 -372.5t31 -370.5q-98 6 -193 6q-94 0 -182 -6zM1274 59q8 166 12 326t4 320t-4 316.5t-12 311.5l69 66q43 -4 85 -6t85 -2t87 2t87 6q-8 -160 -11 -316.5t-3 -312.5t3 -308.5t11 -305.5h70q121 0 235.5 4t225.5 12l-86 -174 q-111 4 -219.5 6t-219.5 2q-180 0 -354 -6z" />
<glyph horiz-adv-x="0" />
<glyph unicode="&#xd;" horiz-adv-x="757" />
<glyph unicode=" "  horiz-adv-x="757" />
<glyph unicode="&#x09;" horiz-adv-x="757" />
<glyph unicode="&#xa0;" horiz-adv-x="757" />
<glyph unicode="!" horiz-adv-x="604" d="M94 168q51 47 102.5 98t104.5 111q94 -104 209 -209q-105 -98 -209 -209q-51 53 -102.5 105.5t-104.5 103.5zM125 1399q45 -2 88 -3t88 -1t89 1t87 3l-76 -987q-25 4 -49 4h-51h-49.5t-50.5 -4z" />
<glyph unicode="&#x22;" horiz-adv-x="677" d="M80 879v559h192v-559h-192zM406 879v559h192v-559h-192z" />
<glyph unicode="#" horiz-adv-x="1574" d="M45 406l76 200h282l86 242h-299l74 201h297l148 415h221l-146 -415h242l148 415h221l-148 -415h283l-74 -201h-280l-84 -242h290l-71 -200h-291l-148 -416h-221l148 416h-244l-149 -416h-220l146 416h-287zM621 606h251l86 242h-249z" />
<glyph unicode="$" horiz-adv-x="1024" d="M59 199q16 -2 34 -2h34q168 0 260 54t92 128q0 35 -15 60.5t-42 49t-63.5 47t-79.5 52.5q-94 63 -139.5 130.5t-45.5 155.5q0 127 96.5 232.5t280.5 165.5q-4 100 -6 252h151q-2 -61 -2 -115.5t-2 -101.5q55 8 110.5 11t111.5 3q39 0 98 -6l49 -119q-25 2 -41 3t-27 1 q-190 0 -296.5 -57.5t-106.5 -138.5q0 -59 46 -98.5t124 -84.5q68 -41 120 -76.5t89 -74.5t55.5 -83t18.5 -102q0 -111 -88.5 -201.5t-262.5 -150.5q-4 -6 -4 -27v-34q0 -25 1 -81.5t7 -152.5h-151q2 55 3 118.5t3 137.5q-133 -25 -260 -24q-63 0 -102 8z" />
<glyph unicode="%" horiz-adv-x="2015" d="M49 1024q0 186 111.5 291.5t312.5 105.5q190 0 298 -109.5t108 -297.5q0 -90 -30 -162t-86 -124t-136 -79.5t-181 -27.5q-90 0 -162.5 29.5t-125 82.5t-81 127t-28.5 164zM332 1083q0 -131 44 -224t130 -144q92 82 92 248q0 135 -49 234t-127 138q-41 -35 -65.5 -100.5 t-24.5 -151.5zM494 -109l888 1696l140 -74l-885 -1695zM1137 379q0 186 111.5 292.5t312.5 106.5q190 0 297.5 -110.5t107.5 -298.5q0 -180 -114.5 -286t-319.5 -106q-90 0 -163 29t-125 82t-79.5 127t-27.5 164zM1417 438q0 -266 172 -368q45 41 69.5 101t24.5 146 q0 135 -50 234.5t-128 138.5q-41 -35 -64.5 -100.5t-23.5 -151.5z" />
<glyph unicode="&#x26;" horiz-adv-x="1568" d="M86 414q0 143 79.5 253.5t235.5 178.5q-94 115 -94 235q0 70 31 130.5t86 105.5t133 70.5t174 25.5q135 0 240 -37l39 -139q-57 23 -106.5 36t-90.5 13q-72 0 -115 -39t-43 -98q0 -90 133.5 -227.5t387.5 -352.5q29 82 28 150q0 115 -86 223q41 -4 84 -6t88 -2t90 2t93 6 q-25 -225 -191 -446q141 -115 317 -213q-133 -143 -235 -322q-137 90 -266 209q-92 -92 -217 -141t-273 -49q-121 0 -218 31.5t-164.5 89t-103.5 137t-36 176.5zM393 596q0 -164 135 -289q59 -55 134 -83.5t153 -28.5q112 0 186 61q-143 119 -277 249t-259 271 q-72 -68 -72 -180z" />
<glyph unicode="'" horiz-adv-x="352" d="M80 879v559h192v-559h-192z" />
<glyph unicode="(" horiz-adv-x="659" d="M119 551q0 303 91 544.5t282 432.5l110 -90q-72 -84 -115 -305.5t-43 -581.5q0 -356 42 -578.5t116 -312.5l-110 -88q-193 193 -283 433.5t-90 545.5z" />
<glyph unicode=")" horiz-adv-x="659" d="M57 -340q72 90 115 312.5t43 578.5q0 360 -43 580.5t-115 306.5l111 90q193 -193 283 -432.5t90 -544.5t-90.5 -546t-282.5 -433z" />
<glyph unicode="*" horiz-adv-x="841" d="M47 1036l74 234l250 -154l-74 283h248l-74 -283l248 154l76 -234l-293 -14l225 -193l-199 -143l-108 277l-107 -277l-198 143l223 193z" />
<glyph unicode="+" horiz-adv-x="1705" d="M254 512v199h498v510h202v-510h498v-199h-498v-512h-202v512h-498z" />
<glyph unicode="," horiz-adv-x="616" d="M111 180q47 49 97 102.5t103 112.5q49 -51 102.5 -102t110.5 -98q-76 -123 -142.5 -234t-125.5 -215l-133 86q29 70 51.5 132.5t40.5 117.5z" />
<glyph unicode="-" horiz-adv-x="614" d="M27 612v213q78 -2 149.5 -3t142.5 -1q70 0 136.5 1t130.5 3v-213q-66 4 -132.5 4h-136.5h-143.5t-146.5 -4z" />
<glyph unicode="." horiz-adv-x="616" d="M90 178q55 51 109.5 105.5t107.5 113.5q53 -57 107.5 -111.5t113.5 -107.5q-55 -53 -110.5 -107.5t-110.5 -111.5q-51 53 -104 107.5t-113 111.5z" />
<glyph unicode="/" horiz-adv-x="522" d="M-80 -106l447 1552l186 -57l-442 -1555z" />
<glyph unicode="0" horiz-adv-x="1517" d="M53 694q0 176 64.5 320.5t185.5 245.5q188 158 471 157q123 0 224.5 -29.5t187.5 -95.5q133 -100 204.5 -252.5t71.5 -339.5q0 -295 -190 -491q-106 -111 -244.5 -169t-298.5 -58q-248 0 -436 159q-113 98 -176.5 240.5t-63.5 312.5zM494 799q0 -256 92 -429t248 -235 q188 152 188 492q0 254 -93 423.5t-253 235.5q-86 -78 -134 -203t-48 -284z" />
<glyph unicode="1" horiz-adv-x="749" d="M-8 1124l41 107q150 41 287 94t266 117q-12 -379 -13 -752q0 -350 13 -690q-90 6 -176 6t-168 -6l-60 55q4 135 7.5 267.5t3.5 263.5q0 129 -3.5 256t-7.5 254z" />
<glyph unicode="2" horiz-adv-x="1189" d="M-66 88l78 127q152 84 265.5 162t188.5 154.5t112.5 156.5t37.5 168q0 156 -104 240t-305 84q-98 0 -205 -27l82 133q190 119 428 119q119 0 218 -36t170 -98.5t110 -146.5t39 -180q0 -100 -46.5 -185t-140.5 -161t-235.5 -148.5t-331.5 -148.5l823 -33l31 -43 q-98 -66 -191.5 -132t-185.5 -136q-211 39 -419 70.5t-419 60.5z" />
<glyph unicode="3" horiz-adv-x="1165" d="M-31 197q137 -29 232 -29q229 0 346 69.5t117 194.5q0 225 -345 225q-23 0 -45 -1t-47 -3l-49 138q213 18 320.5 77.5t107.5 147.5q0 102 -94 157.5t-281 55.5q-96 0 -208 -19l69 119q188 82 389 82q129 0 234.5 -29.5t180.5 -81t116 -117t41 -134.5q0 -199 -305 -265 q174 -43 268 -145t94 -236q0 -90 -45 -165.5t-130 -131t-207 -87t-277 -31.5q-131 0 -228.5 15t-159.5 40z" />
<glyph unicode="4" horiz-adv-x="1222" d="M18 571l816 828q57 -6 110 -6q54 0 103 6q-2 -102 -3.5 -202.5t-1.5 -203.5q0 -233 7 -463h145l-45 -198h-100q2 -82 3 -164t5 -168q-92 6 -178 6q-84 0 -164 -6l-51 55l2 277h-543zM180 530h486v474z" />
<glyph unicode="5" horiz-adv-x="1159" d="M8 215q133 -35 258 -35q195 0 295.5 61.5t100.5 172.5q0 66 -37 115t-112 86.5t-187.5 67.5t-266.5 56l121 652q70 -4 140.5 -5.5t142.5 -1.5h295q74 0 149.5 1t153.5 6l-84 -207q-170 14 -332 21t-319 7h-58l-55 -264q223 -6 394 -45t286 -105.5t174 -158.5t59 -205 q0 -92 -51 -179t-147 -153q-176 -121 -445 -120q-121 0 -223 23.5t-182 66.5z" />
<glyph unicode="6" horiz-adv-x="1417" d="M59 623q0 197 93.5 369.5t261.5 283.5q217 143 528 143q78 0 139.5 -10t110.5 -33l43 -162q-43 29 -103.5 44.5t-142.5 15.5q-205 0 -325.5 -85t-149.5 -245q119 39 272 39q283 0 436.5 -125t153.5 -338q0 -117 -46 -215t-132 -168.5t-209 -110.5t-276 -40 q-147 0 -268 46t-206 131t-132.5 201.5t-47.5 258.5zM489 674q0 -117 23 -216.5t62.5 -174t93 -121.5t116.5 -62q86 61 130 147.5t44 188.5q0 178 -115.5 283.5t-326.5 105.5h-10q-16 -82 -17 -151z" />
<glyph unicode="7" horiz-adv-x="1228" d="M-31 1186l125 209q133 0 263 -2t259 -2q72 0 141.5 -1t139.5 -1q117 0 233 6l58 -109l-539 -1241q-324 -12 -647 -68l909 1237q-229 0 -462.5 -7t-479.5 -21z" />
<glyph unicode="8" horiz-adv-x="1384" d="M57 412q0 129 73 224t208 144q-123 41 -182.5 111t-59.5 176q0 160 151.5 256t444.5 96t444.5 -95t151.5 -257q0 -109 -59.5 -177.5t-181.5 -109.5q135 -49 207.5 -145t72.5 -223q0 -205 -163 -321t-472 -116q-307 0 -471 117t-164 320zM451 406q0 -90 63 -164t180 -107 q117 31 180.5 105.5t63.5 165.5q0 90 -63.5 163.5t-180.5 108.5q-117 -35 -180 -108.5t-63 -163.5zM477 1042q0 -78 56.5 -143t160.5 -98q104 29 160.5 96.5t56.5 144.5q0 80 -56 147.5t-161 96.5q-104 -33 -160.5 -98.5t-56.5 -145.5z" />
<glyph unicode="9" horiz-adv-x="1417" d="M43 860q0 125 47 227.5t134 176t211 114.5t280 41q147 0 268 -46t207 -131t132 -201.5t46 -258.5q0 -197 -94 -369.5t-262 -283.5q-217 -143 -527 -143q-78 0 -140 10t-109 33l-43 161q90 -57 245 -57q197 0 315.5 78t151.5 221q-115 -39 -270 -39q-287 0 -439.5 124 t-152.5 343zM469 956q0 -193 112.5 -299t317.5 -106h23q14 70 14 154q0 256 -81 411.5t-212 188.5q-86 -63 -130 -151.5t-44 -197.5z" />
<glyph unicode=":" horiz-adv-x="616" d="M90 178q55 51 109.5 105.5t107.5 113.5q53 -57 107.5 -111.5t113.5 -107.5q-55 -53 -110.5 -107.5t-110.5 -111.5q-51 53 -104 107.5t-113 111.5zM90 719q55 51 109.5 105.5t107.5 113.5q53 -57 107.5 -111.5t113.5 -107.5q-55 -53 -110.5 -107.5t-110.5 -111.5 q-51 53 -104 107.5t-113 111.5z" />
<glyph unicode=";" horiz-adv-x="616" d="M90 719q59 55 112.5 109.5t104.5 109.5q57 -61 112.5 -115.5t108.5 -103.5l-221 -219q-59 63 -113.5 117.5t-103.5 101.5zM111 180q49 49 98 102.5t102 112.5q49 -51 103.5 -101t113.5 -99q-74 -113 -140 -224.5t-132 -224.5l-133 86q47 113 92 250z" />
<glyph unicode="&#x3c;" horiz-adv-x="1705" d="M264 512v199l1178 483v-219l-893 -365l893 -364v-219z" />
<glyph unicode="=" horiz-adv-x="1705" d="M254 297v199h1198v-199h-1198zM254 727v199h1198v-199h-1198z" />
<glyph unicode="&#x3e;" horiz-adv-x="1705" d="M264 27v219l895 364l-895 365v219l1178 -483v-199z" />
<glyph unicode="?" horiz-adv-x="940" d="M-20 1196l57 135q84 47 172 67.5t188 20.5q106 0 196.5 -32.5t155 -88t101.5 -128t37 -152.5q0 -135 -112.5 -270.5t-336.5 -298.5h-30q-84 0 -160 -29q135 160 197.5 293t62.5 231q0 131 -88 205t-252 74q-102 0 -188 -27zM168 168q113 106 209 209q98 -109 209 -209 q-96 -92 -209 -209q-102 104 -209 209z" />
<glyph unicode="@" horiz-adv-x="2048" d="M90 520q0 168 52.5 318.5t154.5 275.5q147 180 354 273.5t465 93.5q174 0 321.5 -46t254.5 -128q268 -207 268 -543q0 -166 -65.5 -305.5t-188.5 -237.5q-143 -115 -324 -115q-213 0 -215 166q-55 -86 -126.5 -124.5t-170.5 -38.5q-160 0 -241.5 87t-81.5 253 q0 121 38 224t103.5 178t153.5 118t188 43q160 0 236 -131l53 98h178l-147 -598q-6 -25 -7 -41q0 -70 95 -70q37 0 79 18.5t82 57.5q174 162 175 422q0 117 -47.5 217t-134.5 174t-209.5 116t-272.5 42q-285 0 -483 -135q-170 -115 -261.5 -285t-91.5 -375 q0 -154 54.5 -278.5t154 -211.5t239.5 -135.5t312 -48.5q164 0 317.5 49.5t286.5 141.5l82 -117q-309 -231 -682 -231q-197 0 -356.5 49t-282.5 143q-309 240 -309 637zM760 444q0 -188 158 -188q80 0 149.5 60.5t95.5 166.5l54 217q-25 166 -175 166q-55 0 -106 -32.5 t-90 -90t-62.5 -134.5t-23.5 -165z" />
<glyph unicode="A" horiz-adv-x="1484" d="M-43 123q154 229 301.5 455.5t288.5 455.5l-131 189q90 59 173 117.5t161 117.5q182 -311 377.5 -624.5t412.5 -634.5q-82 -51 -168 -113.5t-178 -136.5q-152 268 -283.5 490.5t-244.5 406.5q-152 -211 -297.5 -434.5t-288.5 -462.5zM373 244q76 76 143.5 148.5 t126.5 144.5q123 -147 268 -293q-68 -53 -134 -111.5t-134 -122.5q-66 61 -133.5 120.5t-136.5 113.5z" />
<glyph unicode="B" horiz-adv-x="1456" d="M154 59q8 166 12 326t4 320t-4 316.5t-12 311.5l69 66h273q201 0 326.5 -8.5t178.5 -24.5q297 -84 297 -303q0 -111 -84 -190.5t-253 -120.5q207 -41 311 -132.5t104 -226.5q0 -236 -252 -336q-78 -31 -212 -44t-328 -13h-365zM543 662l6 -556q223 14 334.5 85t111.5 194 t-113.5 193.5t-338.5 83.5zM543 748q186 10 282.5 81.5t96.5 188.5q0 119 -95.5 193.5t-277.5 80.5z" />
<glyph unicode="C" horiz-adv-x="1183" d="M68 682q0 162 55 295t154.5 228t239.5 148.5t310 53.5q51 0 101.5 -3t99.5 -13l102 -168q-57 10 -108 15t-96 5q-223 0 -341 -116.5t-118 -335.5q0 -119 39 -214.5t111.5 -163t178 -104.5t238.5 -37q33 0 71 3.5t79 7.5l-232 -283q-39 -6 -75.5 -8t-77.5 -2 q-168 0 -303.5 48t-230.5 138t-146 218t-51 288z" />
<glyph unicode="D" horiz-adv-x="1570" d="M154 59q8 166 12 326t4 320t-4 316.5t-12 311.5l69 66h352q420 0 588 -84q180 -92 263 -236.5t83 -359.5q0 -371 -235.5 -545t-720.5 -174h-334zM545 705q0 -289 12 -584q256 14 388 166.5t132 437.5q0 274 -131 415.5t-389 145.5q-12 -289 -12 -581z" />
<glyph unicode="E" horiz-adv-x="1161" d="M154 59q8 166 12 326t4 320t-4 316.5t-12 311.5l69 68q111 -4 217.5 -7t216.5 -3q111 0 219.5 3t219.5 7l-78 -160q-76 4 -150.5 6t-150.5 2h-77t-77 -2l-10 -487q78 53 151.5 107.5t147.5 113.5q53 -70 111.5 -138.5t123.5 -135.5q-74 -53 -145.5 -108.5t-138.5 -115.5 q-59 68 -122 132.5t-128 125.5l10 -585q33 0 64.5 -1t64.5 -1q98 0 190.5 4t184.5 10l88 -170q-129 6 -254 8t-246 2q-113 0 -221 -2t-215 -6z" />
<glyph unicode="F" horiz-adv-x="1120" d="M154 59q8 166 12 326t4 320t-4 316.5t-12 311.5l69 68q111 -4 217.5 -7t216.5 -3q111 0 219.5 3t219.5 7l-78 -160q-76 4 -150.5 6t-150.5 2h-77t-77 -2l-10 -487q78 53 151.5 107.5t147.5 113.5q53 -70 111.5 -138.5t123.5 -135.5q-74 -53 -145.5 -108.5t-138.5 -115.5 q-59 68 -122 132.5t-128 127.5q0 -188 10 -372.5t31 -370.5q-98 6 -193 6q-94 0 -182 -6z" />
<glyph unicode="G" horiz-adv-x="1396" d="M80 696q0 160 53 292t152.5 225.5t240 145.5t316.5 52q66 0 121 -5t106 -17l84 -154l-12 -14q-109 20 -230 20q-207 0 -319.5 -114.5t-112.5 -325.5q0 -123 36 -222.5t104.5 -169t167 -106.5t223.5 -37q20 0 39.5 1t40.5 3q-51 78 -106.5 153t-119.5 146q70 61 135.5 129 t130.5 142q135 -147 279 -271q-211 -248 -397 -573q-55 -4 -99.5 -6t-78.5 -2q-180 0 -320.5 48t-237 139t-146.5 222t-50 299z" />
<glyph unicode="H" horiz-adv-x="1615" d="M154 59q8 166 12 326t4 320t-4 316.5t-12 311.5l69 66q41 -4 82 -6t82 -2t84 2t86 6q-4 -123 -7 -250t-3 -258v-109h520q0 160 -2 312.5t-6 304.5q43 -4 86 -6t84 -2q43 0 84 2t82 6l67 -66q-8 -156 -11 -312.5t-3 -315.5q0 -160 3 -320t11 -326l-63 -59q-86 6 -172 6 t-168 -6q4 164 6 316.5t2 297.5h-520v-102q0 -123 3 -250t7 -262q-84 6 -168 6t-170 -6z" />
<glyph unicode="I" horiz-adv-x="751" d="M160 0q8 174 12 344t4 336t-4 330t-12 323l69 66q43 -4 87 -6t90 -2q47 0 92 2t92 6q-8 -168 -11.5 -335t-3.5 -335t3.5 -335t11.5 -335l-64 -59q-92 6 -186 6q-92 0 -180 -6z" />
<glyph unicode="J" horiz-adv-x="733" d="M-254 -115q76 -55 193 -55q59 0 109 26.5t83 75.5q53 82 66.5 228.5t13.5 367.5q0 164 -10.5 364t-28.5 441l68 66q41 -4 84 -6t88 -2q43 0 88 2t90 6q-8 -147 -11.5 -274.5t-3.5 -237.5q0 -186 5.5 -316.5t5.5 -203.5q0 -162 -28 -283t-107 -217q-80 -98 -186.5 -147.5 t-229.5 -49.5q-82 0 -143.5 12.5t-108.5 45.5z" />
<glyph unicode="K" horiz-adv-x="1476" d="M154 59q8 166 12 326t4 320t-4 316.5t-12 311.5l69 66q82 -6 170 -6q86 0 182 6q-16 -123 -24 -247t-8 -251q199 152 364.5 286t306.5 251l154 -115l-436 -317q123 -201 261 -400.5t292 -400.5q-84 -57 -163 -119.5t-157 -130.5q-129 209 -263 418t-279 426l-72 -47 q6 -190 16.5 -377t26.5 -375q-51 4 -99.5 6t-95.5 2t-92 -2t-88 -6z" />
<glyph unicode="L" horiz-adv-x="1062" d="M154 59q8 166 12 326t4 320t-4 316.5t-12 311.5l69 66q43 -4 85 -6t85 -2t87 2t87 6q-8 -160 -11 -316.5t-3 -312.5t3 -308.5t11 -305.5h70q121 0 235.5 4t225.5 12l-86 -174q-111 4 -219.5 6t-219.5 2q-180 0 -354 -6z" />
<glyph unicode="M" horiz-adv-x="1775" d="M96 1165q78 63 151.5 133t143.5 146q129 -186 262 -360.5t275 -344.5l463 660q61 -6 118 -6q55 0 109 6q-12 -336 -12 -670q0 -336 12 -670l-59 -59q-78 6 -162 6q-82 0 -170 -6q4 94 4 188.5v188.5q0 131 -2 261t-6 259l-441 -614q-102 147 -206.5 290.5t-215.5 284.5 v-792l-180 -107v1104z" />
<glyph unicode="N" horiz-adv-x="1579" d="M139 1210q164 113 322 236q236 -303 425 -524.5t333 -374.5v792l198 101v-1125l92 -100q-72 -59 -143.5 -125.5t-142.5 -140.5q-242 293 -441.5 528.5t-359.5 419.5v-834l-201 -100v1157z" />
<glyph unicode="O" d="M43 700q0 168 63.5 306.5t182.5 236.5q106 86 238 131t286 45q266 0 442 -143q123 -100 189.5 -249t66.5 -329q0 -285 -182 -477q-115 -119 -262 -180t-326 -61q-283 0 -467 167q-106 96 -168.5 242t-62.5 311zM473 811q0 -262 101.5 -436t291.5 -246q215 150 215 477 q0 262 -105 437t-298 245q-98 -72 -151.5 -193.5t-53.5 -283.5z" />
<glyph unicode="P" horiz-adv-x="1327" d="M154 59q8 166 12 326t4 320t-4 316.5t-12 311.5l69 66h252q197 0 329 -8.5t206 -38.5q262 -113 262 -377q0 -469 -721 -479q4 -111 15.5 -235t29.5 -261q-96 6 -190 6t-187 -6zM551 602q174 20 264 106.5t90 233.5t-87 235.5t-255 110.5q-12 -311 -12 -579v-107z" />
<glyph unicode="Q" d="M43 700q0 168 62.5 306.5t181.5 236.5q106 86 239 131t287 45q264 0 440 -143q123 -100 190.5 -247.5t67.5 -325.5q0 -352 -292 -539q143 -131 317 -225q-195 -113 -336 -285q-74 96 -155.5 180t-174.5 160q-84 -12 -145 -12q-133 0 -248 42t-205 123q-106 96 -167.5 242 t-61.5 311zM473 811q0 -262 101.5 -436t291.5 -246q215 150 215 477q0 262 -105 437t-298 245q-98 -72 -151.5 -193.5t-53.5 -283.5z" />
<glyph unicode="R" horiz-adv-x="1460" d="M154 59q8 166 12 326t4 320t-4 316.5t-12 311.5l69 66h266q201 0 342.5 -8.5t231.5 -49.5q119 -53 181.5 -143t62.5 -207q0 -133 -63.5 -221t-188.5 -129q92 -106 190 -214t205 -218q-168 -117 -322 -270q-113 162 -226.5 316.5t-229.5 303.5l-123 2q4 -135 13 -274.5 t26 -286.5q-98 6 -191 6q-92 0 -178 -6zM549 651q375 31 375 312q0 287 -361 327q-8 -186 -11 -326.5t-3 -240.5v-72z" />
<glyph unicode="S" horiz-adv-x="952" d="M-98 141q49 -18 98 -18q268 0 268 358q0 98 -2 171t-2 120q0 313 131 476t369 163q70 0 131 -15.5t123 -45.5l41 -103q-66 12 -117 13q-141 0 -197.5 -103.5t-56.5 -331.5q0 -29 1 -76t1 -116q0 -143 -18.5 -252t-79.5 -191q-151 -200 -417 -200h-3q-135 0 -229 41z" />
<glyph unicode="T" horiz-adv-x="1064" d="M-49 1395q92 -4 180 -4h176h467h173t171 4l-74 -166h-288q-25 -307 -25 -639q0 -287 19 -590q-92 6 -183 6q-92 0 -184 -6l-64 59q8 141 12.5 275.5t4.5 269.5q0 319 -25 625h-288z" />
<glyph unicode="U" horiz-adv-x="1615" d="M154 1333l69 66q41 -4 83 -6t85 -2t86 2t88 6q-8 -168 -11 -354.5t-3 -391.5q0 -109 10 -187.5t39 -129.5t79 -74.5t130 -23.5q123 0 254 84q2 133 3 256.5t1 242.5q0 145 -2 288.5t-6 289.5q43 -4 86 -6t84 -2t82 2t82 6l69 -66q-8 -156 -11 -312.5t-3 -315.5 q0 -160 3 -320t11 -326l-65 -59q-84 6 -168 6t-170 -6q6 100 6 203q-158 -104 -290 -158.5t-253 -54.5q-100 0 -167.5 29.5t-108.5 91t-58.5 155.5t-17.5 223v250q0 129 -4 276.5t-12 317.5z" />
<glyph unicode="V" horiz-adv-x="1265" d="M-23 1194l29 55q82 35 162 83t158 108q78 -180 187.5 -404.5t256.5 -496.5l367 897l168 -131q-147 -324 -274.5 -648.5t-233.5 -656.5q-49 6 -103 6q-51 0 -106 -6q-141 311 -293 608t-318 586z" />
<glyph unicode="W" horiz-adv-x="1869" d="M-29 1186l21 71q88 37 170 82t160 101q88 -229 180 -441.5t190 -410.5l160 385l-119 252l29 71q158 66 293 148q70 -186 156.5 -395t195.5 -449l319 844l177 -131q-137 -305 -259 -632t-233 -681q-37 6 -78 6t-84 -6q-72 193 -147.5 382t-161.5 382q-151 -367 -268 -764 q-37 6 -78 6q-39 0 -78 -6q-123 307 -258 602t-287 584z" />
<glyph unicode="X" horiz-adv-x="1323" d="M72 1139l10 67q154 101 289 234q100 -156 188 -278t162 -214l434 496l102 -172l-409 -481q104 -117 213.5 -238t232.5 -250l2 -72q-66 -53 -141.5 -119.5t-165.5 -146.5q-92 143 -184 272.5t-184 245.5l-433 -530l-112 190l424 494q-178 233 -428 502z" />
<glyph unicode="Y" horiz-adv-x="1243" d="M33 1139l20 65q84 53 158 111.5t143 124.5q86 -150 184.5 -299.5t211.5 -298.5l389 598l129 -178l-412 -598q-2 -29 -2 -59v-60q0 -254 49 -545q-104 6 -209 6q-102 0 -202 -6l-46 35q31 233 31 440v58.5t-2 58.5q-221 295 -442 547z" />
<glyph unicode="Z" horiz-adv-x="1222" d="M-14 119q197 287 371.5 568t334.5 564q-332 0 -626 -12l71 160q102 -4 204.5 -6t207.5 -2q135 0 270 3t277 11l69 -113q-186 -287 -356 -569.5t-326 -568.5q174 0 349.5 3t359.5 11l-78 -168q-131 4 -262 7t-262 3q-133 0 -263 -3t-261 -7z" />
<glyph unicode="[" horiz-adv-x="614" d="M121 -360q4 229 4 455.5v455.5v454.5t-4 454.5q66 -2 129 -2h127h125.5t122.5 2v-133h-201q-2 -195 -3 -388.5t-1 -387.5q0 -197 1 -389.5t3 -388.5h201v-133q-59 2 -122 3t-126 1t-127 -1t-129 -3z" />
<glyph unicode="\" horiz-adv-x="522" d="M-33 1389l189 57l446 -1552l-190 -60z" />
<glyph unicode="]" horiz-adv-x="614" d="M-10 -227h198q4 197 4.5 389t0.5 389v388.5t-5 387.5h-198v133q61 -2 122.5 -2h125.5h125.5t128.5 2q-2 -229 -3.5 -454.5t-1.5 -454.5t1 -455.5t4 -455.5q-66 2 -128.5 3t-125.5 1t-125 -1t-123 -3v133z" />
<glyph unicode="^" horiz-adv-x="2048" d="M416 899l481 561h252l481 -561h-235l-371 371l-373 -371h-235z" />
<glyph unicode="_" horiz-adv-x="1024" d="M0 -279h1024v-204h-1024v204z" />
<glyph unicode="`" horiz-adv-x="1024" d="M209 1806h362l246 -309h-178z" />
<glyph unicode="a" horiz-adv-x="1484" d="M-43 123q154 229 301.5 455.5t288.5 455.5l-131 189q90 59 173 117.5t161 117.5q182 -311 377.5 -624.5t412.5 -634.5q-82 -51 -168 -113.5t-178 -136.5q-152 268 -283.5 490.5t-244.5 406.5q-152 -211 -297.5 -434.5t-288.5 -462.5zM373 244q76 76 143.5 148.5 t126.5 144.5q123 -147 268 -293q-68 -53 -134 -111.5t-134 -122.5q-66 61 -133.5 120.5t-136.5 113.5z" />
<glyph unicode="b" horiz-adv-x="1456" d="M154 59q8 166 12 326t4 320t-4 316.5t-12 311.5l69 66h273q201 0 326.5 -8.5t178.5 -24.5q297 -84 297 -303q0 -111 -84 -190.5t-253 -120.5q207 -41 311 -132.5t104 -226.5q0 -236 -252 -336q-78 -31 -212 -44t-328 -13h-365zM543 662l6 -556q223 14 334.5 85t111.5 194 t-113.5 193.5t-338.5 83.5zM543 748q186 10 282.5 81.5t96.5 188.5q0 119 -95.5 193.5t-277.5 80.5z" />
<glyph unicode="c" horiz-adv-x="1183" d="M68 682q0 162 55 295t154.5 228t239.5 148.5t310 53.5q51 0 101.5 -3t99.5 -13l102 -168q-57 10 -108 15t-96 5q-223 0 -341 -116.5t-118 -335.5q0 -119 39 -214.5t111.5 -163t178 -104.5t238.5 -37q33 0 71 3.5t79 7.5l-232 -283q-39 -6 -75.5 -8t-77.5 -2 q-168 0 -303.5 48t-230.5 138t-146 218t-51 288z" />
<glyph unicode="d" horiz-adv-x="1570" d="M154 59q8 166 12 326t4 320t-4 316.5t-12 311.5l69 66h352q420 0 588 -84q180 -92 263 -236.5t83 -359.5q0 -371 -235.5 -545t-720.5 -174h-334zM545 705q0 -289 12 -584q256 14 388 166.5t132 437.5q0 274 -131 415.5t-389 145.5q-12 -289 -12 -581z" />
<glyph unicode="e" horiz-adv-x="1161" d="M154 59q8 166 12 326t4 320t-4 316.5t-12 311.5l69 68q111 -4 217.5 -7t216.5 -3q111 0 219.5 3t219.5 7l-78 -160q-76 4 -150.5 6t-150.5 2h-77t-77 -2l-10 -487q78 53 151.5 107.5t147.5 113.5q53 -70 111.5 -138.5t123.5 -135.5q-74 -53 -145.5 -108.5t-138.5 -115.5 q-59 68 -122 132.5t-128 125.5l10 -585q33 0 64.5 -1t64.5 -1q98 0 190.5 4t184.5 10l88 -170q-129 6 -254 8t-246 2q-113 0 -221 -2t-215 -6z" />
<glyph unicode="f" horiz-adv-x="1120" d="M154 59q8 166 12 326t4 320t-4 316.5t-12 311.5l69 68q111 -4 217.5 -7t216.5 -3q111 0 219.5 3t219.5 7l-78 -160q-76 4 -150.5 6t-150.5 2h-77t-77 -2l-10 -487q78 53 151.5 107.5t147.5 113.5q53 -70 111.5 -138.5t123.5 -135.5q-74 -53 -145.5 -108.5t-138.5 -115.5 q-59 68 -122 132.5t-128 127.5q0 -188 10 -372.5t31 -370.5q-98 6 -193 6q-94 0 -182 -6z" />
<glyph unicode="g" horiz-adv-x="1396" d="M80 696q0 160 53 292t152.5 225.5t240 145.5t316.5 52q66 0 121 -5t106 -17l84 -154l-12 -14q-109 20 -230 20q-207 0 -319.5 -114.5t-112.5 -325.5q0 -123 36 -222.5t104.5 -169t167 -106.5t223.5 -37q20 0 39.5 1t40.5 3q-51 78 -106.5 153t-119.5 146q70 61 135.5 129 t130.5 142q135 -147 279 -271q-211 -248 -397 -573q-55 -4 -99.5 -6t-78.5 -2q-180 0 -320.5 48t-237 139t-146.5 222t-50 299z" />
<glyph unicode="h" horiz-adv-x="1615" d="M154 59q8 166 12 326t4 320t-4 316.5t-12 311.5l69 66q41 -4 82 -6t82 -2t84 2t86 6q-4 -123 -7 -250t-3 -258v-109h520q0 160 -2 312.5t-6 304.5q43 -4 86 -6t84 -2q43 0 84 2t82 6l67 -66q-8 -156 -11 -312.5t-3 -315.5q0 -160 3 -320t11 -326l-63 -59q-86 6 -172 6 t-168 -6q4 164 6 316.5t2 297.5h-520v-102q0 -123 3 -250t7 -262q-84 6 -168 6t-170 -6z" />
<glyph unicode="i" horiz-adv-x="751" d="M160 0q8 174 12 344t4 336t-4 330t-12 323l69 66q43 -4 87 -6t90 -2q47 0 92 2t92 6q-8 -168 -11.5 -335t-3.5 -335t3.5 -335t11.5 -335l-64 -59q-92 6 -186 6q-92 0 -180 -6z" />
<glyph unicode="j" horiz-adv-x="733" d="M-254 -115q76 -55 193 -55q59 0 109 26.5t83 75.5q53 82 66.5 228.5t13.5 367.5q0 164 -10.5 364t-28.5 441l68 66q41 -4 84 -6t88 -2q43 0 88 2t90 6q-8 -147 -11.5 -274.5t-3.5 -237.5q0 -186 5.5 -316.5t5.5 -203.5q0 -162 -28 -283t-107 -217q-80 -98 -186.5 -147.5 t-229.5 -49.5q-82 0 -143.5 12.5t-108.5 45.5z" />
<glyph unicode="k" horiz-adv-x="1476" d="M154 59q8 166 12 326t4 320t-4 316.5t-12 311.5l69 66q82 -6 170 -6q86 0 182 6q-16 -123 -24 -247t-8 -251q199 152 364.5 286t306.5 251l154 -115l-436 -317q123 -201 261 -400.5t292 -400.5q-84 -57 -163 -119.5t-157 -130.5q-129 209 -263 418t-279 426l-72 -47 q6 -190 16.5 -377t26.5 -375q-51 4 -99.5 6t-95.5 2t-92 -2t-88 -6z" />
<glyph unicode="l" horiz-adv-x="1062" d="M154 59q8 166 12 326t4 320t-4 316.5t-12 311.5l69 66q43 -4 85 -6t85 -2t87 2t87 6q-8 -160 -11 -316.5t-3 -312.5t3 -308.5t11 -305.5h70q121 0 235.5 4t225.5 12l-86 -174q-111 4 -219.5 6t-219.5 2q-180 0 -354 -6z" />
<glyph unicode="m" horiz-adv-x="1775" d="M96 1165q78 63 151.5 133t143.5 146q129 -186 262 -360.5t275 -344.5l463 660q61 -6 118 -6q55 0 109 6q-12 -336 -12 -670q0 -336 12 -670l-59 -59q-78 6 -162 6q-82 0 -170 -6q4 94 4 188.5v188.5q0 131 -2 261t-6 259l-441 -614q-102 147 -206.5 290.5t-215.5 284.5 v-792l-180 -107v1104z" />
<glyph unicode="n" horiz-adv-x="1579" d="M139 1210q164 113 322 236q236 -303 425 -524.5t333 -374.5v792l198 101v-1125l92 -100q-72 -59 -143.5 -125.5t-142.5 -140.5q-242 293 -441.5 528.5t-359.5 419.5v-834l-201 -100v1157z" />
<glyph unicode="o" d="M43 700q0 168 63.5 306.5t182.5 236.5q106 86 238 131t286 45q266 0 442 -143q123 -100 189.5 -249t66.5 -329q0 -285 -182 -477q-115 -119 -262 -180t-326 -61q-283 0 -467 167q-106 96 -168.5 242t-62.5 311zM473 811q0 -262 101.5 -436t291.5 -246q215 150 215 477 q0 262 -105 437t-298 245q-98 -72 -151.5 -193.5t-53.5 -283.5z" />
<glyph unicode="p" horiz-adv-x="1327" d="M154 59q8 166 12 326t4 320t-4 316.5t-12 311.5l69 66h252q197 0 329 -8.5t206 -38.5q262 -113 262 -377q0 -469 -721 -479q4 -111 15.5 -235t29.5 -261q-96 6 -190 6t-187 -6zM551 602q174 20 264 106.5t90 233.5t-87 235.5t-255 110.5q-12 -311 -12 -579v-107z" />
<glyph unicode="q" d="M43 700q0 168 62.5 306.5t181.5 236.5q106 86 239 131t287 45q264 0 440 -143q123 -100 190.5 -247.5t67.5 -325.5q0 -352 -292 -539q143 -131 317 -225q-195 -113 -336 -285q-74 96 -155.5 180t-174.5 160q-84 -12 -145 -12q-133 0 -248 42t-205 123q-106 96 -167.5 242 t-61.5 311zM473 811q0 -262 101.5 -436t291.5 -246q215 150 215 477q0 262 -105 437t-298 245q-98 -72 -151.5 -193.5t-53.5 -283.5z" />
<glyph unicode="r" horiz-adv-x="1460" d="M154 59q8 166 12 326t4 320t-4 316.5t-12 311.5l69 66h266q201 0 342.5 -8.5t231.5 -49.5q119 -53 181.5 -143t62.5 -207q0 -133 -63.5 -221t-188.5 -129q92 -106 190 -214t205 -218q-168 -117 -322 -270q-113 162 -226.5 316.5t-229.5 303.5l-123 2q4 -135 13 -274.5 t26 -286.5q-98 6 -191 6q-92 0 -178 -6zM549 651q375 31 375 312q0 287 -361 327q-8 -186 -11 -326.5t-3 -240.5v-72z" />
<glyph unicode="s" horiz-adv-x="952" d="M-98 141q49 -18 98 -18q268 0 268 358q0 98 -2 171t-2 120q0 313 131 476t369 163q70 0 131 -15.5t123 -45.5l41 -103q-66 12 -117 13q-141 0 -197.5 -103.5t-56.5 -331.5q0 -29 1 -76t1 -116q0 -143 -18.5 -252t-79.5 -191q-151 -200 -417 -200h-3q-135 0 -229 41z" />
<glyph unicode="t" horiz-adv-x="1064" d="M-49 1395q92 -4 180 -4h176h467h173t171 4l-74 -166h-288q-25 -307 -25 -639q0 -287 19 -590q-92 6 -183 6q-92 0 -184 -6l-64 59q8 141 12.5 275.5t4.5 269.5q0 319 -25 625h-288z" />
<glyph unicode="u" horiz-adv-x="1615" d="M154 1333l69 66q41 -4 83 -6t85 -2t86 2t88 6q-8 -168 -11 -354.5t-3 -391.5q0 -109 10 -187.5t39 -129.5t79 -74.5t130 -23.5q123 0 254 84q2 133 3 256.5t1 242.5q0 145 -2 288.5t-6 289.5q43 -4 86 -6t84 -2t82 2t82 6l69 -66q-8 -156 -11 -312.5t-3 -315.5 q0 -160 3 -320t11 -326l-65 -59q-84 6 -168 6t-170 -6q6 100 6 203q-158 -104 -290 -158.5t-253 -54.5q-100 0 -167.5 29.5t-108.5 91t-58.5 155.5t-17.5 223v250q0 129 -4 276.5t-12 317.5z" />
<glyph unicode="v" horiz-adv-x="1265" d="M-23 1194l29 55q82 35 162 83t158 108q78 -180 187.5 -404.5t256.5 -496.5l367 897l168 -131q-147 -324 -274.5 -648.5t-233.5 -656.5q-49 6 -103 6q-51 0 -106 -6q-141 311 -293 608t-318 586z" />
<glyph unicode="w" horiz-adv-x="1869" d="M-29 1186l21 71q88 37 170 82t160 101q88 -229 180 -441.5t190 -410.5l160 385l-119 252l29 71q158 66 293 148q70 -186 156.5 -395t195.5 -449l319 844l177 -131q-137 -305 -259 -632t-233 -681q-37 6 -78 6t-84 -6q-72 193 -147.5 382t-161.5 382q-151 -367 -268 -764 q-37 6 -78 6q-39 0 -78 -6q-123 307 -258 602t-287 584z" />
<glyph unicode="x" horiz-adv-x="1323" d="M72 1139l10 67q154 101 289 234q100 -156 188 -278t162 -214l434 496l102 -172l-409 -481q104 -117 213.5 -238t232.5 -250l2 -72q-66 -53 -141.5 -119.5t-165.5 -146.5q-92 143 -184 272.5t-184 245.5l-433 -530l-112 190l424 494q-178 233 -428 502z" />
<glyph unicode="y" horiz-adv-x="1243" d="M33 1139l20 65q84 53 158 111.5t143 124.5q86 -150 184.5 -299.5t211.5 -298.5l389 598l129 -178l-412 -598q-2 -29 -2 -59v-60q0 -254 49 -545q-104 6 -209 6q-102 0 -202 -6l-46 35q31 233 31 440v58.5t-2 58.5q-221 295 -442 547z" />
<glyph unicode="z" horiz-adv-x="1222" d="M-14 119q197 287 371.5 568t334.5 564q-332 0 -626 -12l71 160q102 -4 204.5 -6t207.5 -2q135 0 270 3t277 11l69 -113q-186 -287 -356 -569.5t-326 -568.5q174 0 349.5 3t359.5 11l-78 -168q-131 4 -262 7t-262 3q-133 0 -263 -3t-261 -7z" />
<glyph unicode="{" horiz-adv-x="1024" d="M158 426v209q10 0 20 -1t21 -1q123 0 173 59.5t50 194.5v250q0 109 16.5 180.5t87.5 112.5q51 29 120 39t161 10q18 0 36.5 -1t39.5 -1v-209q-12 0 -24.5 1t-22.5 1q-55 0 -89 -10.5t-52.5 -34t-24.5 -62.5t-6 -94v-240q0 -68 -8.5 -117.5t-32 -84.5t-63.5 -58.5 t-103 -38.5q63 -14 103 -36.5t63.5 -58.5t32 -85t8.5 -117v-241q0 -55 6 -94t24.5 -61.5t52 -33t89.5 -10.5q10 0 22 1t25 1v-209q-20 0 -39 -1t-37 -1q-92 0 -160.5 10.5t-120.5 38.5q-72 41 -88 112t-16 179v252q0 135 -50 193.5t-173 58.5q-10 0 -20.5 -1t-20.5 -1z" />
<glyph unicode="|" horiz-adv-x="1024" d="M410 -483v2048h206v-2048h-206z" />
<glyph unicode="}" horiz-adv-x="1024" d="M143 -205q12 0 24.5 -1t22.5 -1q55 0 89 10.5t52.5 33t24.5 61.5t6 94v239q0 68 8.5 118t31 85t62.5 58.5t105 37.5q-63 14 -103 38t-63.5 59t-32 85t-8.5 117v242q0 55 -6 94t-24.5 61.5t-52 33t-89.5 10.5q-10 0 -22 -1t-25 -1v209h68q96 0 167 -10.5t122 -39.5 q70 -41 87 -111.5t17 -178.5v-252q0 -135 50.5 -193.5t172.5 -58.5q10 0 20.5 1t20.5 1v-209h-37q-127 0 -177 -56.5t-50 -193.5v-252q0 -109 -16.5 -180.5t-87.5 -110.5q-51 -29 -120 -39t-161 -10q-18 0 -36.5 1t-39.5 1v209z" />
<glyph unicode="~" horiz-adv-x="1705" d="M178 418v221q213 143 387 143q90 0 160 -18.5t135 -40.5q74 -25 145.5 -49.5t149.5 -24.5q92 0 181 39t194 115v-221q-100 -68 -192.5 -103t-186.5 -35q-92 0 -184 31q-106 35 -202.5 67.5t-201.5 32.5q-92 0 -184 -39.5t-201 -117.5z" />
<glyph unicode="&#xa1;" horiz-adv-x="604" d="M94 1231q53 49 103.5 101.5t103.5 107.5q55 -59 108.5 -111.5t100.5 -97.5q-51 -47 -103.5 -98.5t-105.5 -110.5q-47 53 -99 104.5t-108 104.5zM125 0l76 985q25 -2 49 -3t51 -1q25 0 50.5 1t49.5 3l76 -985q-43 4 -87 4h-89h-88t-88 -4z" />
<glyph unicode="&#xa2;" horiz-adv-x="1026" d="M92 684q0 223 116 368.5t335 204.5q0 125 -6 242h153q-6 -109 -6 -223h41q98 0 178 -12l86 -142q-70 14 -131 15q-330 0 -330 -336q0 -109 32 -196t91.5 -147.5t143.5 -93t190 -32.5h27.5t27.5 2l-209 -213q-27 -2 -52 -3t-54 -1h-41q0 -115 6 -238h-153q4 66 6 128.5 t2 121.5q-217 47 -335 192.5t-118 362.5z" />
<glyph unicode="&#xa3;" horiz-adv-x="1189" d="M-51 59l80 127q248 92 247 267q0 37 -8 94t-24 135l-185 -8v143l154 -4q-10 47 -15 85t-5 69q0 100 39.5 183t116.5 142.5t188.5 92t253.5 32.5q145 0 260 -37l49 -147q-117 39 -236 39q-248 0 -248 -187q0 -39 12.5 -106.5t33.5 -165.5l307 4v-143l-289 8q2 -14 2 -26.5 v-26.5q0 -119 -68.5 -199t-222.5 -133l813 -29l31 -43q-98 -68 -192.5 -134t-184.5 -134q-225 33 -451.5 57.5t-457.5 44.5z" />
<glyph unicode="&#xa4;" horiz-adv-x="1241" d="M68 438l202 205q-76 106 -75 242q0 135 75 241l-202 205l104 107l205 -203q51 37 110.5 57.5t133.5 20.5q139 0 247 -78l203 203l105 -107l-203 -205q76 -106 76 -241q0 -133 -76 -242l203 -205l-105 -104l-203 203q-51 -37 -111.5 -57.5t-133.5 -20.5q-141 0 -246 78 l-205 -203zM346 885q0 -57 21.5 -107.5t59.5 -87.5t88 -58.5t108 -21.5q57 0 107 21.5t88 58.5t59.5 87t21.5 108q0 55 -21.5 105t-59.5 88t-88 60.5t-107 22.5t-107.5 -22.5t-88.5 -60.5t-59.5 -88t-21.5 -105z" />
<glyph unicode="&#xa5;" horiz-adv-x="1234" d="M0 1145l23 65q80 51 152.5 107.5t141.5 122.5q86 -150 183.5 -299.5t210.5 -298.5l389 598l129 -178l-248 -359l199 6v-127l-277 6l-96 -145l373 6v-127l-365 6q2 -244 49 -528q-109 6 -207 6q-100 0 -194 -6l-45 35q31 229 31 428v65l-398 -6v127l367 -6l-121 145 l-246 -6v127l156 -6q-59 72 -110.5 131.5t-96.5 110.5z" />
<glyph unicode="&#xa6;" horiz-adv-x="1024" d="M410 -350v758h206v-758h-206zM410 674v758h206v-758h-206z" />
<glyph unicode="&#xa7;" horiz-adv-x="1024" d="M106 473q0 90 52.5 185.5t156.5 183.5q-119 96 -118 227q0 72 30.5 134.5t89 108.5t140.5 72.5t184 26.5q78 0 152 -18l43 -117q-78 18 -160 18q-111 0 -169 -40t-58 -109q0 -53 34.5 -95t106.5 -83q86 -51 146.5 -87t88.5 -69q45 -51 67.5 -102.5t22.5 -110.5 q0 -94 -50 -185t-152 -173q133 -96 133 -242q0 -72 -31 -132.5t-89 -105.5t-141 -69.5t-188 -24.5q-141 0 -223 43l-37 127q104 -47 221 -47q115 0 174.5 40t59.5 110q0 57 -41 96t-119 86q-98 59 -164.5 99t-95.5 75q-66 84 -66 178zM303 606q0 -45 22.5 -79.5t64.5 -69.5 t104.5 -72t142.5 -86q86 92 86 180q0 43 -21.5 79t-63.5 72t-103.5 73.5l-143.5 87.5q-43 -53 -65.5 -97.5t-22.5 -87.5z" />
<glyph unicode="&#xa8;" horiz-adv-x="1024" d="M145 1651q98 92 179 178q43 -47 87 -91t91 -87q-43 -41 -87 -87.5t-91 -93.5q-45 47 -89.5 92.5t-89.5 88.5zM520 1651q98 92 178 178q43 -47 88 -91t93 -87q-47 -43 -91.5 -88.5t-89.5 -92.5q-45 47 -89 92.5t-89 88.5z" />
<glyph unicode="&#xa9;" horiz-adv-x="1705" d="M111 733q0 147 55 282.5t164 246.5q104 106 236 161.5t286 55.5t288 -55.5t242 -163.5q104 -104 159.5 -239.5t55.5 -287.5q0 -154 -55 -285t-160 -235q-111 -109 -247 -166t-283 -57t-280.5 56t-241.5 165q-106 106 -162.5 240.5t-56.5 281.5zM233 735 q0 -125 46.5 -236.5t136.5 -201.5t202.5 -136t235.5 -46t236.5 46t205.5 138q88 86 133.5 196.5t45.5 239.5q0 127 -46.5 238.5t-134.5 200.5q-182 182 -440 182q-129 0 -239.5 -45t-198.5 -135q-90 -92 -136.5 -205t-46.5 -236zM453 729q0 104 28.5 187t81.5 141.5 t128 90.5t165 32q76 0 140.5 -20.5t110.5 -57.5t73.5 -89t31.5 -116h-188q-8 72 -53 109.5t-119 37.5q-88 0 -141.5 -78.5t-53.5 -230.5q0 -147 52.5 -224t150.5 -77q72 0 116 42t54 120h193q-4 -70 -32 -126t-76 -96t-114.5 -62.5t-146.5 -22.5q-186 0 -293.5 116.5 t-107.5 323.5z" />
<glyph unicode="&#xaa;" horiz-adv-x="980" d="M-29 637q102 137 199.5 273.5t189.5 273.5l-86 112q59 35 114.5 71t107.5 71q119 -186 248.5 -375t271.5 -381q-53 -31 -110.5 -67.5t-117.5 -82.5q-100 160 -187 294t-161 245q-100 -127 -196.5 -261t-190.5 -278zM246 709q49 47 94 91t84 85q41 -45 85 -88t93 -88 q-45 -33 -89 -67t-89 -73q-43 37 -87 72t-91 68z" />
<glyph unicode="&#xab;" horiz-adv-x="1038" d="M57 688l346 442l148 -155l-240 -287l242 -289l-147 -153zM500 688l344 442l147 -155l-239 -287l241 -289l-147 -153z" />
<glyph unicode="&#xac;" horiz-adv-x="1705" d="M254 668v196h1198v-502h-199v306h-999z" />
<glyph unicode="&#xad;" horiz-adv-x="614" d="M27 612v213q78 -2 149.5 -3t142.5 -1q70 0 136.5 1t130.5 3v-213q-66 4 -132.5 4h-136.5h-143.5t-146.5 -4z" />
<glyph unicode="&#xae;" horiz-adv-x="1705" d="M111 733q0 203 108 387q100 170 265 264.5t368 94.5q154 0 290 -56.5t244 -167.5q104 -104 157.5 -238t53.5 -284q0 -154 -56 -288t-163 -238q-111 -106 -246 -161.5t-280 -55.5q-150 0 -285 57t-243 168q-104 106 -158.5 239.5t-54.5 278.5zM233 735q0 -123 45.5 -234.5 t133.5 -199.5q90 -92 203.5 -140t236.5 -48t235.5 47t204.5 135q88 86 135.5 196.5t47.5 231.5q0 266 -177 446q-182 187 -444 187q-256 0 -432 -176q-92 -92 -140.5 -207t-48.5 -238zM545 336v825h323q352 0 353 -237q0 -82 -47.5 -139.5t-133.5 -79.5l185 -369h-224 l-157 338h-99v-338h-200zM745 795h99q86 0 128 27.5t42 88.5q0 66 -44 94.5t-136 28.5h-89v-239z" />
<glyph unicode="&#xaf;" horiz-adv-x="1024" d="M201 1563v174h622v-174h-622z" />
<glyph unicode="&#xb0;" horiz-adv-x="673" d="M35 1159q0 63 23.5 118.5t64.5 97.5t96.5 65.5t118.5 23.5t118.5 -24.5t96.5 -65.5t64.5 -96t23.5 -119q0 -61 -23.5 -116.5t-65.5 -97.5t-97.5 -65.5t-118.5 -23.5t-117.5 23.5t-95.5 64.5t-64.5 96.5t-23.5 118.5zM162 1161q0 -74 51 -125t125 -51q37 0 68.5 14.5 t55 39t37 56t13.5 66.5q0 72 -51 123t-123 51q-37 0 -68.5 -13t-55.5 -36.5t-38 -55.5t-14 -69z" />
<glyph unicode="&#xb1;" horiz-adv-x="1705" d="M254 -2v199h1198v-199h-1198zM254 698v199h498v326h202v-326h498v-199h-498v-325h-202v325h-498z" />
<glyph unicode="&#xb2;" horiz-adv-x="784" d="M-43 616l51 76q201 100 300.5 189.5t99.5 195.5q0 92 -70 143.5t-201 51.5q-59 0 -135 -17l53 80q125 72 283 72q78 0 143.5 -21.5t112.5 -59.5t72.5 -88t25.5 -108q0 -121 -123 -207.5t-374 -179.5l542 -18l21 -27q-63 -41 -126 -80.5t-122 -80.5q-141 23 -277.5 43 t-275.5 36z" />
<glyph unicode="&#xb3;" horiz-adv-x="770" d="M-20 682q86 -18 153 -18q150 0 227.5 42t77.5 117q0 135 -227 135q-14 0 -29.5 -1t-31.5 -3l-33 84q141 10 211.5 46t70.5 90q0 59 -61.5 92.5t-183.5 33.5q-33 0 -67 -3t-73 -7l47 70q119 49 256 49q86 0 156 -18.5t119 -48t75.5 -68.5t26.5 -82q0 -121 -200 -158 q115 -27 177 -88t62 -141q0 -109 -114.5 -179.5t-321.5 -70.5q-86 0 -150.5 9t-105.5 26z" />
<glyph unicode="&#xb4;" horiz-adv-x="1024" d="M256 1497l246 309h362l-430 -309h-178z" />
<glyph unicode="&#xb6;" horiz-adv-x="1024" d="M41 1130q0 76 26.5 140.5t78 110.5t124 72t162.5 26h551v-111h-113v-1368h-151v1368h-160v-1368h-151v784q-86 2 -154 30t-115 73t-72.5 107.5t-25.5 135.5z" />
<glyph unicode="&#xb7;" horiz-adv-x="616" d="M90 719q55 51 109.5 105.5t107.5 113.5q53 -57 107.5 -111.5t113.5 -107.5q-55 -53 -110.5 -107.5t-110.5 -111.5q-51 53 -104 107.5t-113 111.5z" />
<glyph unicode="&#xb8;" horiz-adv-x="1024" d="M270 -283q76 -23 137.5 -32t108.5 -9q84 0 84 60q0 63 -111 63q-8 0 -16 -1t-18 -1v203h112v-84h8q244 0 244 -178q0 -188 -278 -189q-59 0 -120 8.5t-120 26.5z" />
<glyph unicode="&#xb9;" horiz-adv-x="495" d="M-6 1237l29 66q98 25 188 56.5t176 67.5q-4 -113 -6 -225t-2 -225q0 -104 2 -206.5t6 -207.5q-29 2 -58.5 3t-58.5 1t-55.5 -1t-54.5 -3l-39 33q6 162 6 319q0 154 -6 306z" />
<glyph unicode="&#xba;" horiz-adv-x="1028" d="M29 983q0 102 42 184t119 142q143 106 347 106q172 0 292 -86q80 -59 124 -149.5t44 -196.5q0 -172 -120 -287q-74 -72 -172.5 -108.5t-215.5 -36.5q-186 0 -309 100q-70 57 -110.5 145.5t-40.5 186.5zM311 1051q0 -158 67.5 -262.5t192.5 -147.5q141 88 142 287 q0 158 -69 262t-198 145q-66 -41 -100.5 -113.5t-34.5 -170.5z" />
<glyph unicode="&#xbb;" horiz-adv-x="1038" d="M57 399l244 289l-242 287l148 155l346 -442l-346 -442zM498 399l243 289l-241 287l147 155l346 -442l-346 -442z" />
<glyph unicode="&#xbc;" horiz-adv-x="1585" d="M-6 1247l26 62q190 47 349 116q-4 -106 -6.5 -210.5t-2.5 -208.5q0 -98 2.5 -194.5t6.5 -193.5q-29 2 -55.5 3.5t-55.5 1.5t-54.5 -1t-51.5 -4l-37 31q6 150 6 297q0 145 -6 287zM129 -109l889 1696l139 -74l-883 -1695zM827 319l512 463q18 -2 36 -2h34h33t33 2 q-2 -55 -2 -111.5v-113.5v-130.5t4 -129.5h90l-29 -111h-61q0 -47 1 -93t3 -93q-29 2 -56.5 3t-56.5 1q-27 0 -52.5 -1t-49.5 -3l-33 31l2 155h-342zM928 297h307v264z" />
<glyph unicode="&#xbd;" horiz-adv-x="1564" d="M-6 1247l26 62q190 47 349 116q-4 -106 -6.5 -210.5t-2.5 -208.5q0 -98 2.5 -194.5t6.5 -193.5q-29 2 -55.5 3.5t-55.5 1.5t-54.5 -1t-51.5 -4l-37 31q6 150 6 297q0 145 -6 287zM129 -109l889 1696l139 -74l-883 -1695zM774 49l49 72q193 94 287 177t94 181 q0 88 -65.5 135.5t-192.5 47.5q-57 0 -129 -17l51 76q119 66 269 65q76 0 138 -19t107 -54t70 -82t25 -103q0 -113 -117 -193.5t-359 -166.5l519 -18l18 -23q-59 -37 -118.5 -75t-116.5 -77q-135 23 -265.5 40.5t-263.5 33.5z" />
<glyph unicode="&#xbe;" horiz-adv-x="1847" d="M-18 729q88 -16 145 -16q143 0 217 39t74 108q0 127 -217 127q-14 0 -27.5 -1t-30.5 -1l-30 76q135 10 201.5 44t66.5 83q0 119 -236 119q-29 0 -62.5 -3.5t-68.5 -7.5l43 66q119 47 246 47q82 0 148.5 -17.5t113.5 -45t73 -64.5t26 -76q0 -113 -193 -149 q111 -23 169 -81t58 -132q0 -100 -108.5 -166t-304.5 -66q-84 0 -144.5 8.5t-99.5 22.5zM389 -109l889 1696l139 -74l-882 -1695zM1087 319l512 463q18 -2 36 -2h34h33t33 2q-2 -55 -2 -111.5v-113.5v-130.5t4 -129.5h90l-29 -111h-61q0 -47 1 -93t3 -93q-29 2 -56.5 3 t-56.5 1q-27 0 -52.5 -1t-49.5 -3l-33 31l2 155h-342zM1188 297h307v264z" />
<glyph unicode="&#xbf;" horiz-adv-x="940" d="M61 379q0 135 113 271t336 300q10 0 19.5 -1t19.5 -1q41 0 78.5 6.5t72.5 22.5q-135 -160 -197.5 -292t-62.5 -230q0 -131 88 -206t252 -75q102 0 189 27l-58 -135q-162 -90 -360 -91q-106 0 -196.5 33t-155 88.5t-101.5 129t-37 153.5zM362 1229q94 92 209 209 q57 -59 109.5 -110.5t99.5 -98.5q-115 -109 -209 -209q-51 55 -103 106.5t-106 102.5z" />
<glyph unicode="&#xc0;" horiz-adv-x="1484" d="M-43 123q154 229 301.5 455.5t288.5 455.5l-131 189q90 59 173 117.5t161 117.5q182 -311 377.5 -624.5t412.5 -634.5q-82 -51 -168 -113.5t-178 -136.5q-152 268 -283.5 490.5t-244.5 406.5q-152 -211 -297.5 -434.5t-288.5 -462.5zM373 244q76 76 143.5 148.5 t126.5 144.5q123 -147 268 -293q-68 -53 -134 -111.5t-134 -122.5q-66 61 -133.5 120.5t-136.5 113.5zM397 1806h362l246 -309h-178z" />
<glyph unicode="&#xc1;" horiz-adv-x="1484" d="M-43 123q154 229 301.5 455.5t288.5 455.5l-131 189q90 59 173 117.5t161 117.5q182 -311 377.5 -624.5t412.5 -634.5q-82 -51 -168 -113.5t-178 -136.5q-152 268 -283.5 490.5t-244.5 406.5q-152 -211 -297.5 -434.5t-288.5 -462.5zM373 244q76 76 143.5 148.5 t126.5 144.5q123 -147 268 -293q-68 -53 -134 -111.5t-134 -122.5q-66 61 -133.5 120.5t-136.5 113.5zM444 1497l246 309h362l-430 -309h-178z" />
<glyph unicode="&#xc2;" horiz-adv-x="1484" d="M-43 123q154 229 301.5 455.5t288.5 455.5l-131 189q90 59 173 117.5t161 117.5q182 -311 377.5 -624.5t412.5 -634.5q-82 -51 -168 -113.5t-178 -136.5q-152 268 -283.5 490.5t-244.5 406.5q-152 -211 -297.5 -434.5t-288.5 -462.5zM323 1495l236 297h282l238 -297h-172 l-207 156l-207 -156h-170zM373 244q76 76 143.5 148.5t126.5 144.5q123 -147 268 -293q-68 -53 -134 -111.5t-134 -122.5q-66 61 -133.5 120.5t-136.5 113.5z" />
<glyph unicode="&#xc3;" horiz-adv-x="1484" d="M-43 123q154 229 301.5 455.5t288.5 455.5l-131 189q90 59 173 117.5t161 117.5q182 -311 377.5 -624.5t412.5 -634.5q-82 -51 -168 -113.5t-178 -136.5q-152 268 -283.5 490.5t-244.5 406.5q-152 -211 -297.5 -434.5t-288.5 -462.5zM340 1522q57 248 227 247q23 0 42 -3 t40 -7l143 -35q27 -6 53 -6q84 0 103 82h117q-25 -129 -80.5 -190.5t-153.5 -61.5q-35 0 -106 17l-123 28q-12 4 -24.5 4h-22.5q-82 0 -103 -75h-112zM373 244q76 76 143.5 148.5t126.5 144.5q123 -147 268 -293q-68 -53 -134 -111.5t-134 -122.5q-66 61 -133.5 120.5 t-136.5 113.5z" />
<glyph unicode="&#xc4;" horiz-adv-x="1484" d="M-43 123q154 229 301.5 455.5t288.5 455.5l-131 189q90 59 173 117.5t161 117.5q182 -311 377.5 -624.5t412.5 -634.5q-82 -51 -168 -113.5t-178 -136.5q-152 268 -283.5 490.5t-244.5 406.5q-152 -211 -297.5 -434.5t-288.5 -462.5zM333 1651q98 92 179 178 q43 -47 87 -91t91 -87q-43 -41 -87 -87.5t-91 -93.5q-45 47 -89.5 92.5t-89.5 88.5zM373 244q76 76 143.5 148.5t126.5 144.5q123 -147 268 -293q-68 -53 -134 -111.5t-134 -122.5q-66 61 -133.5 120.5t-136.5 113.5zM708 1651q98 92 178 178q43 -47 88 -91t93 -87 q-47 -43 -91.5 -88.5t-89.5 -92.5q-45 47 -89 92.5t-89 88.5z" />
<glyph unicode="&#xc5;" horiz-adv-x="1484" d="M-43 123q154 229 301.5 455.5t288.5 455.5l-131 189q90 59 173 117.5t161 117.5q182 -311 377.5 -624.5t412.5 -634.5q-82 -51 -168 -113.5t-178 -136.5q-152 268 -283.5 490.5t-244.5 406.5q-152 -211 -297.5 -434.5t-288.5 -462.5zM373 244q76 76 143.5 148.5 t126.5 144.5q123 -147 268 -293q-68 -53 -134 -111.5t-134 -122.5q-66 61 -133.5 120.5t-136.5 113.5zM446 1737q0 51 19.5 96t52.5 78t78 52t96 19t95 -19t78 -53t53.5 -78t19.5 -95t-19.5 -96.5t-53.5 -79t-78 -53t-95 -19.5t-96 19.5t-78 53t-52.5 79t-19.5 96.5z M596 1735q0 -41 27.5 -69t68.5 -28t68.5 28t27.5 69q0 43 -27.5 70.5t-68.5 27.5t-68.5 -28.5t-27.5 -69.5z" />
<glyph unicode="&#xc6;" horiz-adv-x="1964" d="M-96 121l940 1280q143 -4 279.5 -7t267.5 -3q133 0 259 3t248 7l-77 -160q-76 4 -151 6t-150 2h-77t-77 -2l-10 -487q154 104 301 221q53 -70 111.5 -138.5t123.5 -135.5q-76 -53 -147.5 -108.5t-138.5 -115.5q-61 70 -123 134.5t-127 123.5l10 -585q33 0 64.5 -1 t64.5 -1q98 0 190.5 4t184.5 10l90 -170q-131 6 -255 8t-247 2q-113 0 -221.5 -2t-212.5 -6l-63 59q12 406 12 781q0 104 -1 205.5t-3 201.5h-33l-363 -551q76 -84 161 -171t184 -179q-70 -68 -131.5 -136.5t-116.5 -137.5q-72 86 -148 169t-153 167l-346 -474z" />
<glyph unicode="&#xc7;" horiz-adv-x="1183" d="M68 682q0 162 55 295t154.5 228t239.5 148.5t310 53.5q51 0 101.5 -3t99.5 -13l102 -168q-57 10 -108 15t-96 5q-223 0 -341 -116.5t-118 -335.5q0 -119 39 -214.5t111.5 -163t178 -104.5t238.5 -37q33 0 71 3.5t79 7.5l-232 -283q-39 -6 -75.5 -8t-77.5 -2 q-168 0 -303.5 48t-230.5 138t-146 218t-51 288zM577 -283q76 -23 137.5 -32t108.5 -9q84 0 84 60q0 63 -111 63q-8 0 -16 -1t-18 -1v203h112v-84h8q244 0 244 -178q0 -188 -278 -189q-59 0 -120 8.5t-120 26.5z" />
<glyph unicode="&#xc8;" horiz-adv-x="1161" d="M154 59q8 166 12 326t4 320t-4 316.5t-12 311.5l69 68q111 -4 217.5 -7t216.5 -3q111 0 219.5 3t219.5 7l-78 -160q-76 4 -150.5 6t-150.5 2h-77t-77 -2l-10 -487q78 53 151.5 107.5t147.5 113.5q53 -70 111.5 -138.5t123.5 -135.5q-74 -53 -145.5 -108.5t-138.5 -115.5 q-59 68 -122 132.5t-128 125.5l10 -585q33 0 64.5 -1t64.5 -1q98 0 190.5 4t184.5 10l88 -170q-129 6 -254 8t-246 2q-113 0 -221 -2t-215 -6zM399 1806h362l246 -309h-178z" />
<glyph unicode="&#xc9;" horiz-adv-x="1161" d="M154 59q8 166 12 326t4 320t-4 316.5t-12 311.5l69 68q111 -4 217.5 -7t216.5 -3q111 0 219.5 3t219.5 7l-78 -160q-76 4 -150.5 6t-150.5 2h-77t-77 -2l-10 -487q78 53 151.5 107.5t147.5 113.5q53 -70 111.5 -138.5t123.5 -135.5q-74 -53 -145.5 -108.5t-138.5 -115.5 q-59 68 -122 132.5t-128 125.5l10 -585q33 0 64.5 -1t64.5 -1q98 0 190.5 4t184.5 10l88 -170q-129 6 -254 8t-246 2q-113 0 -221 -2t-215 -6zM446 1497l246 309h362l-430 -309h-178z" />
<glyph unicode="&#xca;" horiz-adv-x="1161" d="M154 59q8 166 12 326t4 320t-4 316.5t-12 311.5l69 68q111 -4 217.5 -7t216.5 -3q111 0 219.5 3t219.5 7l-78 -160q-76 4 -150.5 6t-150.5 2h-77t-77 -2l-10 -487q78 53 151.5 107.5t147.5 113.5q53 -70 111.5 -138.5t123.5 -135.5q-74 -53 -145.5 -108.5t-138.5 -115.5 q-59 68 -122 132.5t-128 125.5l10 -585q33 0 64.5 -1t64.5 -1q98 0 190.5 4t184.5 10l88 -170q-129 6 -254 8t-246 2q-113 0 -221 -2t-215 -6zM325 1495l236 297h282l238 -297h-172l-207 156l-207 -156h-170z" />
<glyph unicode="&#xcb;" horiz-adv-x="1161" d="M154 59q8 166 12 326t4 320t-4 316.5t-12 311.5l69 68q111 -4 217.5 -7t216.5 -3q111 0 219.5 3t219.5 7l-78 -160q-76 4 -150.5 6t-150.5 2h-77t-77 -2l-10 -487q78 53 151.5 107.5t147.5 113.5q53 -70 111.5 -138.5t123.5 -135.5q-74 -53 -145.5 -108.5t-138.5 -115.5 q-59 68 -122 132.5t-128 125.5l10 -585q33 0 64.5 -1t64.5 -1q98 0 190.5 4t184.5 10l88 -170q-129 6 -254 8t-246 2q-113 0 -221 -2t-215 -6zM335 1651q98 92 179 178q43 -47 87 -91t91 -87q-43 -41 -87 -87.5t-91 -93.5q-45 47 -89.5 92.5t-89.5 88.5zM710 1651 q98 92 178 178q43 -47 88 -91t93 -87q-47 -43 -91.5 -88.5t-89.5 -92.5q-45 47 -89 92.5t-89 88.5z" />
<glyph unicode="&#xcc;" horiz-adv-x="751" d="M76 1806h362l246 -309h-178zM160 0q8 174 12 344t4 336t-4 330t-12 323l69 66q43 -4 87 -6t90 -2q47 0 92 2t92 6q-8 -168 -11.5 -335t-3.5 -335t3.5 -335t11.5 -335l-64 -59q-92 6 -186 6q-92 0 -180 -6z" />
<glyph unicode="&#xcd;" horiz-adv-x="751" d="M123 1497l246 309h362l-430 -309h-178zM160 0q8 174 12 344t4 336t-4 330t-12 323l69 66q43 -4 87 -6t90 -2q47 0 92 2t92 6q-8 -168 -11.5 -335t-3.5 -335t3.5 -335t11.5 -335l-64 -59q-92 6 -186 6q-92 0 -180 -6z" />
<glyph unicode="&#xce;" horiz-adv-x="751" d="M2 1495l236 297h282l238 -297h-172l-207 156l-207 -156h-170zM160 0q8 174 12 344t4 336t-4 330t-12 323l69 66q43 -4 87 -6t90 -2q47 0 92 2t92 6q-8 -168 -11.5 -335t-3.5 -335t3.5 -335t11.5 -335l-64 -59q-92 6 -186 6q-92 0 -180 -6z" />
<glyph unicode="&#xcf;" horiz-adv-x="751" d="M12 1651q98 92 179 178q43 -47 87 -91t91 -87q-43 -41 -87 -87.5t-91 -93.5q-45 47 -89.5 92.5t-89.5 88.5zM160 0q8 174 12 344t4 336t-4 330t-12 323l69 66q43 -4 87 -6t90 -2q47 0 92 2t92 6q-8 -168 -11.5 -335t-3.5 -335t3.5 -335t11.5 -335l-64 -59q-92 6 -186 6 q-92 0 -180 -6zM387 1651q98 92 178 178q43 -47 88 -91t93 -87q-47 -43 -91.5 -88.5t-89.5 -92.5q-45 47 -89 92.5t-89 88.5z" />
<glyph unicode="&#xd0;" horiz-adv-x="1619" d="M63 621v176l156 -9q-2 137 -6 272.5t-10 272.5l67 66h353q420 0 587 -84q180 -92 263 -236.5t83 -359.5q0 -371 -235.5 -545t-720.5 -174h-334l-63 59q4 123 7 264.5t7 303.5zM594 627q0 -221 12 -506q256 14 388 166.5t132 437.5q0 274 -131 415.5t-389 145.5 q-12 -256 -12 -498l242 9v-176z" />
<glyph unicode="&#xd1;" horiz-adv-x="1579" d="M139 1210q164 113 322 236q236 -303 425 -524.5t333 -374.5v792l198 101v-1125l92 -100q-72 -59 -143.5 -125.5t-142.5 -140.5q-242 293 -441.5 528.5t-359.5 419.5v-834l-201 -100v1157zM551 1522q57 248 227 247q23 0 42 -3t40 -7l143 -35q27 -6 53 -6q84 0 103 82h117 q-25 -129 -80.5 -190.5t-153.5 -61.5q-35 0 -106 17l-123 28q-12 4 -24.5 4h-22.5q-82 0 -103 -75h-112z" />
<glyph unicode="&#xd2;" d="M43 700q0 168 63.5 306.5t182.5 236.5q106 86 238 131t286 45q266 0 442 -143q123 -100 189.5 -249t66.5 -329q0 -285 -182 -477q-115 -119 -262 -180t-326 -61q-283 0 -467 167q-106 96 -168.5 242t-62.5 311zM473 811q0 -262 101.5 -436t291.5 -246q215 150 215 477 q0 262 -105 437t-298 245q-98 -72 -151.5 -193.5t-53.5 -283.5zM475 1806h362l246 -309h-178z" />
<glyph unicode="&#xd3;" d="M43 700q0 168 63.5 306.5t182.5 236.5q106 86 238 131t286 45q266 0 442 -143q123 -100 189.5 -249t66.5 -329q0 -285 -182 -477q-115 -119 -262 -180t-326 -61q-283 0 -467 167q-106 96 -168.5 242t-62.5 311zM473 811q0 -262 101.5 -436t291.5 -246q215 150 215 477 q0 262 -105 437t-298 245q-98 -72 -151.5 -193.5t-53.5 -283.5zM522 1497l246 309h362l-430 -309h-178z" />
<glyph unicode="&#xd4;" d="M43 700q0 168 63.5 306.5t182.5 236.5q106 86 238 131t286 45q266 0 442 -143q123 -100 189.5 -249t66.5 -329q0 -285 -182 -477q-115 -119 -262 -180t-326 -61q-283 0 -467 167q-106 96 -168.5 242t-62.5 311zM401 1495l236 297h282l238 -297h-172l-207 156l-207 -156 h-170zM473 811q0 -262 101.5 -436t291.5 -246q215 150 215 477q0 262 -105 437t-298 245q-98 -72 -151.5 -193.5t-53.5 -283.5z" />
<glyph unicode="&#xd5;" d="M43 700q0 168 63.5 306.5t182.5 236.5q106 86 238 131t286 45q266 0 442 -143q123 -100 189.5 -249t66.5 -329q0 -285 -182 -477q-115 -119 -262 -180t-326 -61q-283 0 -467 167q-106 96 -168.5 242t-62.5 311zM418 1522q57 248 227 247q23 0 42 -3t40 -7l143 -35 q27 -6 53 -6q84 0 103 82h117q-25 -129 -80.5 -190.5t-153.5 -61.5q-35 0 -106 17l-123 28q-12 4 -24.5 4h-22.5q-82 0 -103 -75h-112zM473 811q0 -262 101.5 -436t291.5 -246q215 150 215 477q0 262 -105 437t-298 245q-98 -72 -151.5 -193.5t-53.5 -283.5z" />
<glyph unicode="&#xd6;" d="M43 700q0 168 63.5 306.5t182.5 236.5q106 86 238 131t286 45q266 0 442 -143q123 -100 189.5 -249t66.5 -329q0 -285 -182 -477q-115 -119 -262 -180t-326 -61q-283 0 -467 167q-106 96 -168.5 242t-62.5 311zM411 1651q98 92 179 178q43 -47 87 -91t91 -87 q-43 -41 -87 -87.5t-91 -93.5q-45 47 -89.5 92.5t-89.5 88.5zM473 811q0 -262 101.5 -436t291.5 -246q215 150 215 477q0 262 -105 437t-298 245q-98 -72 -151.5 -193.5t-53.5 -283.5zM786 1651q98 92 178 178q43 -47 88 -91t93 -87q-47 -43 -91.5 -88.5t-89.5 -92.5 q-45 47 -89 92.5t-89 88.5z" />
<glyph unicode="&#xd7;" horiz-adv-x="1705" d="M276 160l451 450l-451 453l140 139l450 -450l451 450l141 -139l-450 -453l450 -450l-141 -140l-451 451l-450 -451z" />
<glyph unicode="&#xd8;" d="M43 696q0 170 63.5 309.5t182.5 237.5q106 86 239.5 131t290.5 45q195 0 346 -82q41 53 79 102.5t71 96.5q37 -37 79 -73t89 -72q-41 -43 -80 -88.5t-78 -92.5q186 -207 186 -508q0 -291 -182 -483q-111 -117 -260 -178t-326 -61q-211 0 -348 86q-41 -51 -80 -102.5 t-75 -106.5q-41 41 -83 78.5t-87 74.5q82 86 161 180q-94 117 -141 242t-47 264zM473 811q0 -262 101.5 -436t291.5 -246q215 150 215 477q0 262 -105 437t-298 245q-98 -72 -151.5 -193.5t-53.5 -283.5z" />
<glyph unicode="&#xd9;" horiz-adv-x="1615" d="M154 1333l69 66q41 -4 83 -6t85 -2t86 2t88 6q-8 -168 -11 -354.5t-3 -391.5q0 -109 10 -187.5t39 -129.5t79 -74.5t130 -23.5q123 0 254 84q2 133 3 256.5t1 242.5q0 145 -2 288.5t-6 289.5q43 -4 86 -6t84 -2t82 2t82 6l69 -66q-8 -156 -11 -312.5t-3 -315.5 q0 -160 3 -320t11 -326l-65 -59q-84 6 -168 6t-170 -6q6 100 6 203q-158 -104 -290 -158.5t-253 -54.5q-100 0 -167.5 29.5t-108.5 91t-58.5 155.5t-17.5 223v250q0 129 -4 276.5t-12 317.5zM506 1806h362l246 -309h-178z" />
<glyph unicode="&#xda;" horiz-adv-x="1615" d="M154 1333l69 66q41 -4 83 -6t85 -2t86 2t88 6q-8 -168 -11 -354.5t-3 -391.5q0 -109 10 -187.5t39 -129.5t79 -74.5t130 -23.5q123 0 254 84q2 133 3 256.5t1 242.5q0 145 -2 288.5t-6 289.5q43 -4 86 -6t84 -2t82 2t82 6l69 -66q-8 -156 -11 -312.5t-3 -315.5 q0 -160 3 -320t11 -326l-65 -59q-84 6 -168 6t-170 -6q6 100 6 203q-158 -104 -290 -158.5t-253 -54.5q-100 0 -167.5 29.5t-108.5 91t-58.5 155.5t-17.5 223v250q0 129 -4 276.5t-12 317.5zM553 1497l246 309h362l-430 -309h-178z" />
<glyph unicode="&#xdb;" horiz-adv-x="1615" d="M154 1333l69 66q41 -4 83 -6t85 -2t86 2t88 6q-8 -168 -11 -354.5t-3 -391.5q0 -109 10 -187.5t39 -129.5t79 -74.5t130 -23.5q123 0 254 84q2 133 3 256.5t1 242.5q0 145 -2 288.5t-6 289.5q43 -4 86 -6t84 -2t82 2t82 6l69 -66q-8 -156 -11 -312.5t-3 -315.5 q0 -160 3 -320t11 -326l-65 -59q-84 6 -168 6t-170 -6q6 100 6 203q-158 -104 -290 -158.5t-253 -54.5q-100 0 -167.5 29.5t-108.5 91t-58.5 155.5t-17.5 223v250q0 129 -4 276.5t-12 317.5zM432 1495l236 297h282l238 -297h-172l-207 156l-207 -156h-170z" />
<glyph unicode="&#xdc;" horiz-adv-x="1615" d="M154 1333l69 66q41 -4 83 -6t85 -2t86 2t88 6q-8 -168 -11 -354.5t-3 -391.5q0 -109 10 -187.5t39 -129.5t79 -74.5t130 -23.5q123 0 254 84q2 133 3 256.5t1 242.5q0 145 -2 288.5t-6 289.5q43 -4 86 -6t84 -2t82 2t82 6l69 -66q-8 -156 -11 -312.5t-3 -315.5 q0 -160 3 -320t11 -326l-65 -59q-84 6 -168 6t-170 -6q6 100 6 203q-158 -104 -290 -158.5t-253 -54.5q-100 0 -167.5 29.5t-108.5 91t-58.5 155.5t-17.5 223v250q0 129 -4 276.5t-12 317.5zM428 1659q49 47 96 93t92 95q96 -106 189 -188q-43 -41 -90.5 -88.5t-98.5 -100.5 q-86 90 -188 189zM825 1659q49 47 95.5 94t91.5 94q45 -49 92 -95t98 -93q-43 -41 -91 -88.5t-99 -100.5q-43 45 -89 92.5t-98 96.5z" />
<glyph unicode="&#xdd;" horiz-adv-x="1243" d="M33 1139l20 65q84 53 158 111.5t143 124.5q86 -150 184.5 -299.5t211.5 -298.5l389 598l129 -178l-412 -598q-2 -29 -2 -59v-60q0 -254 49 -545q-104 6 -209 6q-102 0 -202 -6l-46 35q31 233 31 440v58.5t-2 58.5q-221 295 -442 547zM367 1497l246 309h362l-430 -309 h-178z" />
<glyph unicode="&#xde;" horiz-adv-x="1327" d="M154 59q8 166 12 326t4 320t-4 316.5t-12 311.5l69 66h348l-8 -176q25 2 49.5 2h49.5q305 0 457.5 -107.5t152.5 -318.5q0 -231 -177 -352t-532 -128q4 -76 13.5 -154.5t19.5 -164.5q-96 6 -190 6t-187 -6zM553 760q0 -174 6 -336q172 23 259 110t87 232q0 147 -88 236.5 t-258 109.5q-6 -178 -6 -352z" />
<glyph unicode="&#xdf;" horiz-adv-x="1904" d="M-98 141q49 -18 98 -18q268 0 268 358q0 98 -2 171t-2 120q0 313 131 476t369 163q70 0 131 -15.5t123 -45.5l41 -103q-66 12 -117 13q-141 0 -197.5 -103.5t-56.5 -331.5q0 -29 1 -76t1 -116q0 -143 -18.5 -252t-79.5 -191q-152 -201 -420 -200q-135 0 -229 41zM854 141 q49 -18 98 -18q268 0 268 358q0 98 -2 171t-2 120q0 313 131 476t369 163q70 0 131 -15.5t123 -45.5l41 -103q-66 12 -117 13q-141 0 -197.5 -103.5t-56.5 -331.5q0 -29 1 -76t1 -116q0 -143 -18.5 -252t-79.5 -191q-152 -201 -420 -200q-135 0 -229 41z" />
<glyph unicode="&#xe0;" horiz-adv-x="1484" d="M-43 123q154 229 301.5 455.5t288.5 455.5l-131 189q90 59 173 117.5t161 117.5q182 -311 377.5 -624.5t412.5 -634.5q-82 -51 -168 -113.5t-178 -136.5q-152 268 -283.5 490.5t-244.5 406.5q-152 -211 -297.5 -434.5t-288.5 -462.5zM373 244q76 76 143.5 148.5 t126.5 144.5q123 -147 268 -293q-68 -53 -134 -111.5t-134 -122.5q-66 61 -133.5 120.5t-136.5 113.5zM397 1806h362l246 -309h-178z" />
<glyph unicode="&#xe1;" horiz-adv-x="1484" d="M-43 123q154 229 301.5 455.5t288.5 455.5l-131 189q90 59 173 117.5t161 117.5q182 -311 377.5 -624.5t412.5 -634.5q-82 -51 -168 -113.5t-178 -136.5q-152 268 -283.5 490.5t-244.5 406.5q-152 -211 -297.5 -434.5t-288.5 -462.5zM373 244q76 76 143.5 148.5 t126.5 144.5q123 -147 268 -293q-68 -53 -134 -111.5t-134 -122.5q-66 61 -133.5 120.5t-136.5 113.5zM444 1497l246 309h362l-430 -309h-178z" />
<glyph unicode="&#xe2;" horiz-adv-x="1484" d="M-43 123q154 229 301.5 455.5t288.5 455.5l-131 189q90 59 173 117.5t161 117.5q182 -311 377.5 -624.5t412.5 -634.5q-82 -51 -168 -113.5t-178 -136.5q-152 268 -283.5 490.5t-244.5 406.5q-152 -211 -297.5 -434.5t-288.5 -462.5zM323 1495l236 297h282l238 -297h-172 l-207 156l-207 -156h-170zM373 244q76 76 143.5 148.5t126.5 144.5q123 -147 268 -293q-68 -53 -134 -111.5t-134 -122.5q-66 61 -133.5 120.5t-136.5 113.5z" />
<glyph unicode="&#xe3;" horiz-adv-x="1484" d="M-43 123q154 229 301.5 455.5t288.5 455.5l-131 189q90 59 173 117.5t161 117.5q182 -311 377.5 -624.5t412.5 -634.5q-82 -51 -168 -113.5t-178 -136.5q-152 268 -283.5 490.5t-244.5 406.5q-152 -211 -297.5 -434.5t-288.5 -462.5zM340 1522q57 248 227 247q23 0 42 -3 t40 -7l143 -35q27 -6 53 -6q84 0 103 82h117q-25 -129 -80.5 -190.5t-153.5 -61.5q-35 0 -106 17l-123 28q-12 4 -24.5 4h-22.5q-82 0 -103 -75h-112zM373 244q76 76 143.5 148.5t126.5 144.5q123 -147 268 -293q-68 -53 -134 -111.5t-134 -122.5q-66 61 -133.5 120.5 t-136.5 113.5z" />
<glyph unicode="&#xe4;" horiz-adv-x="1484" d="M-43 123q154 229 301.5 455.5t288.5 455.5l-131 189q90 59 173 117.5t161 117.5q182 -311 377.5 -624.5t412.5 -634.5q-82 -51 -168 -113.5t-178 -136.5q-152 268 -283.5 490.5t-244.5 406.5q-152 -211 -297.5 -434.5t-288.5 -462.5zM333 1651q98 92 179 178 q43 -47 87 -91t91 -87q-43 -41 -87 -87.5t-91 -93.5q-45 47 -89.5 92.5t-89.5 88.5zM373 244q76 76 143.5 148.5t126.5 144.5q123 -147 268 -293q-68 -53 -134 -111.5t-134 -122.5q-66 61 -133.5 120.5t-136.5 113.5zM708 1651q98 92 178 178q43 -47 88 -91t93 -87 q-47 -43 -91.5 -88.5t-89.5 -92.5q-45 47 -89 92.5t-89 88.5z" />
<glyph unicode="&#xe5;" horiz-adv-x="1484" d="M-43 123q154 229 301.5 455.5t288.5 455.5l-131 189q90 59 173 117.5t161 117.5q182 -311 377.5 -624.5t412.5 -634.5q-82 -51 -168 -113.5t-178 -136.5q-152 268 -283.5 490.5t-244.5 406.5q-152 -211 -297.5 -434.5t-288.5 -462.5zM373 244q76 76 143.5 148.5 t126.5 144.5q123 -147 268 -293q-68 -53 -134 -111.5t-134 -122.5q-66 61 -133.5 120.5t-136.5 113.5zM446 1737q0 51 19.5 96t52.5 78t78 52t96 19t95 -19t78 -53t53.5 -78t19.5 -95t-19.5 -96.5t-53.5 -79t-78 -53t-95 -19.5t-96 19.5t-78 53t-52.5 79t-19.5 96.5z M596 1735q0 -41 27.5 -69t68.5 -28t68.5 28t27.5 69q0 43 -27.5 70.5t-68.5 27.5t-68.5 -28.5t-27.5 -69.5z" />
<glyph unicode="&#xe6;" horiz-adv-x="1964" d="M-96 121l940 1280q143 -4 279.5 -7t267.5 -3q133 0 259 3t248 7l-77 -160q-76 4 -151 6t-150 2h-77t-77 -2l-10 -487q154 104 301 221q53 -70 111.5 -138.5t123.5 -135.5q-76 -53 -147.5 -108.5t-138.5 -115.5q-61 70 -123 134.5t-127 123.5l10 -585q33 0 64.5 -1 t64.5 -1q98 0 190.5 4t184.5 10l90 -170q-131 6 -255 8t-247 2q-113 0 -221.5 -2t-212.5 -6l-63 59q12 406 12 781q0 104 -1 205.5t-3 201.5h-33l-363 -551q76 -84 161 -171t184 -179q-70 -68 -131.5 -136.5t-116.5 -137.5q-72 86 -148 169t-153 167l-346 -474z" />
<glyph unicode="&#xe7;" horiz-adv-x="1183" d="M68 682q0 162 55 295t154.5 228t239.5 148.5t310 53.5q51 0 101.5 -3t99.5 -13l102 -168q-57 10 -108 15t-96 5q-223 0 -341 -116.5t-118 -335.5q0 -119 39 -214.5t111.5 -163t178 -104.5t238.5 -37q33 0 71 3.5t79 7.5l-232 -283q-39 -6 -75.5 -8t-77.5 -2 q-168 0 -303.5 48t-230.5 138t-146 218t-51 288zM577 -283q76 -23 137.5 -32t108.5 -9q84 0 84 60q0 63 -111 63q-8 0 -16 -1t-18 -1v203h112v-84h8q244 0 244 -178q0 -188 -278 -189q-59 0 -120 8.5t-120 26.5z" />
<glyph unicode="&#xe8;" horiz-adv-x="1161" d="M154 59q8 166 12 326t4 320t-4 316.5t-12 311.5l69 68q111 -4 217.5 -7t216.5 -3q111 0 219.5 3t219.5 7l-78 -160q-76 4 -150.5 6t-150.5 2h-77t-77 -2l-10 -487q78 53 151.5 107.5t147.5 113.5q53 -70 111.5 -138.5t123.5 -135.5q-74 -53 -145.5 -108.5t-138.5 -115.5 q-59 68 -122 132.5t-128 125.5l10 -585q33 0 64.5 -1t64.5 -1q98 0 190.5 4t184.5 10l88 -170q-129 6 -254 8t-246 2q-113 0 -221 -2t-215 -6zM399 1806h362l246 -309h-178z" />
<glyph unicode="&#xe9;" horiz-adv-x="1161" d="M154 59q8 166 12 326t4 320t-4 316.5t-12 311.5l69 68q111 -4 217.5 -7t216.5 -3q111 0 219.5 3t219.5 7l-78 -160q-76 4 -150.5 6t-150.5 2h-77t-77 -2l-10 -487q78 53 151.5 107.5t147.5 113.5q53 -70 111.5 -138.5t123.5 -135.5q-74 -53 -145.5 -108.5t-138.5 -115.5 q-59 68 -122 132.5t-128 125.5l10 -585q33 0 64.5 -1t64.5 -1q98 0 190.5 4t184.5 10l88 -170q-129 6 -254 8t-246 2q-113 0 -221 -2t-215 -6zM446 1497l246 309h362l-430 -309h-178z" />
<glyph unicode="&#xea;" horiz-adv-x="1161" d="M154 59q8 166 12 326t4 320t-4 316.5t-12 311.5l69 68q111 -4 217.5 -7t216.5 -3q111 0 219.5 3t219.5 7l-78 -160q-76 4 -150.5 6t-150.5 2h-77t-77 -2l-10 -487q78 53 151.5 107.5t147.5 113.5q53 -70 111.5 -138.5t123.5 -135.5q-74 -53 -145.5 -108.5t-138.5 -115.5 q-59 68 -122 132.5t-128 125.5l10 -585q33 0 64.5 -1t64.5 -1q98 0 190.5 4t184.5 10l88 -170q-129 6 -254 8t-246 2q-113 0 -221 -2t-215 -6zM325 1495l236 297h282l238 -297h-172l-207 156l-207 -156h-170z" />
<glyph unicode="&#xeb;" horiz-adv-x="1161" d="M154 59q8 166 12 326t4 320t-4 316.5t-12 311.5l69 68q111 -4 217.5 -7t216.5 -3q111 0 219.5 3t219.5 7l-78 -160q-76 4 -150.5 6t-150.5 2h-77t-77 -2l-10 -487q78 53 151.5 107.5t147.5 113.5q53 -70 111.5 -138.5t123.5 -135.5q-74 -53 -145.5 -108.5t-138.5 -115.5 q-59 68 -122 132.5t-128 125.5l10 -585q33 0 64.5 -1t64.5 -1q98 0 190.5 4t184.5 10l88 -170q-129 6 -254 8t-246 2q-113 0 -221 -2t-215 -6zM335 1651q98 92 179 178q43 -47 87 -91t91 -87q-43 -41 -87 -87.5t-91 -93.5q-45 47 -89.5 92.5t-89.5 88.5zM710 1651 q98 92 178 178q43 -47 88 -91t93 -87q-47 -43 -91.5 -88.5t-89.5 -92.5q-45 47 -89 92.5t-89 88.5z" />
<glyph unicode="&#xec;" horiz-adv-x="751" d="M76 1806h362l246 -309h-178zM160 0q8 174 12 344t4 336t-4 330t-12 323l69 66q43 -4 87 -6t90 -2q47 0 92 2t92 6q-8 -168 -11.5 -335t-3.5 -335t3.5 -335t11.5 -335l-64 -59q-92 6 -186 6q-92 0 -180 -6z" />
<glyph unicode="&#xed;" horiz-adv-x="751" d="M123 1497l246 309h362l-430 -309h-178zM160 0q8 174 12 344t4 336t-4 330t-12 323l69 66q43 -4 87 -6t90 -2q47 0 92 2t92 6q-8 -168 -11.5 -335t-3.5 -335t3.5 -335t11.5 -335l-64 -59q-92 6 -186 6q-92 0 -180 -6z" />
<glyph unicode="&#xee;" horiz-adv-x="751" d="M2 1495l236 297h282l238 -297h-172l-207 156l-207 -156h-170zM160 0q8 174 12 344t4 336t-4 330t-12 323l69 66q43 -4 87 -6t90 -2q47 0 92 2t92 6q-8 -168 -11.5 -335t-3.5 -335t3.5 -335t11.5 -335l-64 -59q-92 6 -186 6q-92 0 -180 -6z" />
<glyph unicode="&#xef;" horiz-adv-x="751" d="M12 1651q98 92 179 178q43 -47 87 -91t91 -87q-43 -41 -87 -87.5t-91 -93.5q-45 47 -89.5 92.5t-89.5 88.5zM160 0q8 174 12 344t4 336t-4 330t-12 323l69 66q43 -4 87 -6t90 -2q47 0 92 2t92 6q-8 -168 -11.5 -335t-3.5 -335t3.5 -335t11.5 -335l-64 -59q-92 6 -186 6 q-92 0 -180 -6zM387 1651q98 92 178 178q43 -47 88 -91t93 -87q-47 -43 -91.5 -88.5t-89.5 -92.5q-45 47 -89 92.5t-89 88.5z" />
<glyph unicode="&#xf0;" horiz-adv-x="1619" d="M63 621v176l156 -9q-2 137 -6 272.5t-10 272.5l67 66h353q420 0 587 -84q180 -92 263 -236.5t83 -359.5q0 -371 -235.5 -545t-720.5 -174h-334l-63 59q4 123 7 264.5t7 303.5zM594 627q0 -221 12 -506q256 14 388 166.5t132 437.5q0 274 -131 415.5t-389 145.5 q-12 -256 -12 -498l242 9v-176z" />
<glyph unicode="&#xf1;" horiz-adv-x="1579" d="M139 1210q164 113 322 236q236 -303 425 -524.5t333 -374.5v792l198 101v-1125l92 -100q-72 -59 -143.5 -125.5t-142.5 -140.5q-242 293 -441.5 528.5t-359.5 419.5v-834l-201 -100v1157zM551 1522q57 248 227 247q23 0 42 -3t40 -7l143 -35q27 -6 53 -6q84 0 103 82h117 q-25 -129 -80.5 -190.5t-153.5 -61.5q-35 0 -106 17l-123 28q-12 4 -24.5 4h-22.5q-82 0 -103 -75h-112z" />
<glyph unicode="&#xf2;" d="M43 700q0 168 63.5 306.5t182.5 236.5q106 86 238 131t286 45q266 0 442 -143q123 -100 189.5 -249t66.5 -329q0 -285 -182 -477q-115 -119 -262 -180t-326 -61q-283 0 -467 167q-106 96 -168.5 242t-62.5 311zM473 811q0 -262 101.5 -436t291.5 -246q215 150 215 477 q0 262 -105 437t-298 245q-98 -72 -151.5 -193.5t-53.5 -283.5zM475 1806h362l246 -309h-178z" />
<glyph unicode="&#xf3;" d="M43 700q0 168 63.5 306.5t182.5 236.5q106 86 238 131t286 45q266 0 442 -143q123 -100 189.5 -249t66.5 -329q0 -285 -182 -477q-115 -119 -262 -180t-326 -61q-283 0 -467 167q-106 96 -168.5 242t-62.5 311zM473 811q0 -262 101.5 -436t291.5 -246q215 150 215 477 q0 262 -105 437t-298 245q-98 -72 -151.5 -193.5t-53.5 -283.5zM522 1497l246 309h362l-430 -309h-178z" />
<glyph unicode="&#xf4;" d="M43 700q0 168 63.5 306.5t182.5 236.5q106 86 238 131t286 45q266 0 442 -143q123 -100 189.5 -249t66.5 -329q0 -285 -182 -477q-115 -119 -262 -180t-326 -61q-283 0 -467 167q-106 96 -168.5 242t-62.5 311zM401 1495l236 297h282l238 -297h-172l-207 156l-207 -156 h-170zM473 811q0 -262 101.5 -436t291.5 -246q215 150 215 477q0 262 -105 437t-298 245q-98 -72 -151.5 -193.5t-53.5 -283.5z" />
<glyph unicode="&#xf5;" d="M43 700q0 168 63.5 306.5t182.5 236.5q106 86 238 131t286 45q266 0 442 -143q123 -100 189.5 -249t66.5 -329q0 -285 -182 -477q-115 -119 -262 -180t-326 -61q-283 0 -467 167q-106 96 -168.5 242t-62.5 311zM418 1522q57 248 227 247q23 0 42 -3t40 -7l143 -35 q27 -6 53 -6q84 0 103 82h117q-25 -129 -80.5 -190.5t-153.5 -61.5q-35 0 -106 17l-123 28q-12 4 -24.5 4h-22.5q-82 0 -103 -75h-112zM473 811q0 -262 101.5 -436t291.5 -246q215 150 215 477q0 262 -105 437t-298 245q-98 -72 -151.5 -193.5t-53.5 -283.5z" />
<glyph unicode="&#xf6;" d="M43 700q0 168 63.5 306.5t182.5 236.5q106 86 238 131t286 45q266 0 442 -143q123 -100 189.5 -249t66.5 -329q0 -285 -182 -477q-115 -119 -262 -180t-326 -61q-283 0 -467 167q-106 96 -168.5 242t-62.5 311zM411 1651q98 92 179 178q43 -47 87 -91t91 -87 q-43 -41 -87 -87.5t-91 -93.5q-45 47 -89.5 92.5t-89.5 88.5zM473 811q0 -262 101.5 -436t291.5 -246q215 150 215 477q0 262 -105 437t-298 245q-98 -72 -151.5 -193.5t-53.5 -283.5zM786 1651q98 92 178 178q43 -47 88 -91t93 -87q-47 -43 -91.5 -88.5t-89.5 -92.5 q-45 47 -89 92.5t-89 88.5z" />
<glyph unicode="&#xf7;" horiz-adv-x="1705" d="M254 512v199h1198v-199h-1198zM702 217q0 66 45.5 109t106.5 43t106.5 -44t45.5 -108q0 -59 -44 -104t-108 -45q-63 0 -107.5 43t-44.5 106zM702 1004q0 66 45.5 108.5t106.5 42.5t106.5 -44t45.5 -107q0 -61 -43 -106.5t-109 -45.5q-63 0 -107.5 44t-44.5 108z" />
<glyph unicode="&#xf8;" d="M43 696q0 170 63.5 309.5t182.5 237.5q106 86 239.5 131t290.5 45q195 0 346 -82q41 53 79 102.5t71 96.5q37 -37 79 -73t89 -72q-41 -43 -80 -88.5t-78 -92.5q186 -207 186 -508q0 -291 -182 -483q-111 -117 -260 -178t-326 -61q-211 0 -348 86q-41 -51 -80 -102.5 t-75 -106.5q-41 41 -83 78.5t-87 74.5q82 86 161 180q-94 117 -141 242t-47 264zM473 811q0 -262 101.5 -436t291.5 -246q215 150 215 477q0 262 -105 437t-298 245q-98 -72 -151.5 -193.5t-53.5 -283.5z" />
<glyph unicode="&#xf9;" horiz-adv-x="1615" d="M154 1333l69 66q41 -4 83 -6t85 -2t86 2t88 6q-8 -168 -11 -354.5t-3 -391.5q0 -109 10 -187.5t39 -129.5t79 -74.5t130 -23.5q123 0 254 84q2 133 3 256.5t1 242.5q0 145 -2 288.5t-6 289.5q43 -4 86 -6t84 -2t82 2t82 6l69 -66q-8 -156 -11 -312.5t-3 -315.5 q0 -160 3 -320t11 -326l-65 -59q-84 6 -168 6t-170 -6q6 100 6 203q-158 -104 -290 -158.5t-253 -54.5q-100 0 -167.5 29.5t-108.5 91t-58.5 155.5t-17.5 223v250q0 129 -4 276.5t-12 317.5zM506 1806h362l246 -309h-178z" />
<glyph unicode="&#xfa;" horiz-adv-x="1615" d="M154 1333l69 66q41 -4 83 -6t85 -2t86 2t88 6q-8 -168 -11 -354.5t-3 -391.5q0 -109 10 -187.5t39 -129.5t79 -74.5t130 -23.5q123 0 254 84q2 133 3 256.5t1 242.5q0 145 -2 288.5t-6 289.5q43 -4 86 -6t84 -2t82 2t82 6l69 -66q-8 -156 -11 -312.5t-3 -315.5 q0 -160 3 -320t11 -326l-65 -59q-84 6 -168 6t-170 -6q6 100 6 203q-158 -104 -290 -158.5t-253 -54.5q-100 0 -167.5 29.5t-108.5 91t-58.5 155.5t-17.5 223v250q0 129 -4 276.5t-12 317.5zM553 1497l246 309h362l-430 -309h-178z" />
<glyph unicode="&#xfb;" horiz-adv-x="1615" d="M154 1333l69 66q41 -4 83 -6t85 -2t86 2t88 6q-8 -168 -11 -354.5t-3 -391.5q0 -109 10 -187.5t39 -129.5t79 -74.5t130 -23.5q123 0 254 84q2 133 3 256.5t1 242.5q0 145 -2 288.5t-6 289.5q43 -4 86 -6t84 -2t82 2t82 6l69 -66q-8 -156 -11 -312.5t-3 -315.5 q0 -160 3 -320t11 -326l-65 -59q-84 6 -168 6t-170 -6q6 100 6 203q-158 -104 -290 -158.5t-253 -54.5q-100 0 -167.5 29.5t-108.5 91t-58.5 155.5t-17.5 223v250q0 129 -4 276.5t-12 317.5zM432 1495l236 297h282l238 -297h-172l-207 156l-207 -156h-170z" />
<glyph unicode="&#xfc;" horiz-adv-x="1615" d="M154 1333l69 66q41 -4 83 -6t85 -2t86 2t88 6q-8 -168 -11 -354.5t-3 -391.5q0 -109 10 -187.5t39 -129.5t79 -74.5t130 -23.5q123 0 254 84q2 133 3 256.5t1 242.5q0 145 -2 288.5t-6 289.5q43 -4 86 -6t84 -2t82 2t82 6l69 -66q-8 -156 -11 -312.5t-3 -315.5 q0 -160 3 -320t11 -326l-65 -59q-84 6 -168 6t-170 -6q6 100 6 203q-158 -104 -290 -158.5t-253 -54.5q-100 0 -167.5 29.5t-108.5 91t-58.5 155.5t-17.5 223v250q0 129 -4 276.5t-12 317.5zM428 1659q49 47 96 93t92 95q96 -106 189 -188q-43 -41 -90.5 -88.5t-98.5 -100.5 q-86 90 -188 189zM825 1659q49 47 95.5 94t91.5 94q45 -49 92 -95t98 -93q-43 -41 -91 -88.5t-99 -100.5q-43 45 -89 92.5t-98 96.5z" />
<glyph unicode="&#xfd;" horiz-adv-x="1243" d="M33 1139l20 65q84 53 158 111.5t143 124.5q86 -150 184.5 -299.5t211.5 -298.5l389 598l129 -178l-412 -598q-2 -29 -2 -59v-60q0 -254 49 -545q-104 6 -209 6q-102 0 -202 -6l-46 35q31 233 31 440v58.5t-2 58.5q-221 295 -442 547zM367 1497l246 309h362l-430 -309 h-178z" />
<glyph unicode="&#xfe;" horiz-adv-x="1327" d="M154 59q8 166 12 326t4 320t-4 316.5t-12 311.5l69 66h348l-8 -176q25 2 49.5 2h49.5q305 0 457.5 -107.5t152.5 -318.5q0 -231 -177 -352t-532 -128q4 -76 13.5 -154.5t19.5 -164.5q-96 6 -190 6t-187 -6zM553 760q0 -174 6 -336q172 23 259 110t87 232q0 147 -88 236.5 t-258 109.5q-6 -178 -6 -352z" />
<glyph unicode="&#xff;" horiz-adv-x="1243" d="M33 1139l20 65q84 53 158 111.5t143 124.5q86 -150 184.5 -299.5t211.5 -298.5l389 598l129 -178l-412 -598q-2 -29 -2 -59v-60q0 -254 49 -545q-104 6 -209 6q-102 0 -202 -6l-46 35q31 233 31 440v58.5t-2 58.5q-221 295 -442 547zM256 1651q98 92 179 178 q43 -47 87 -91t91 -87q-43 -41 -87 -87.5t-91 -93.5q-45 47 -89.5 92.5t-89.5 88.5zM631 1651q98 92 178 178q43 -47 88 -91t93 -87q-47 -43 -91.5 -88.5t-89.5 -92.5q-45 47 -89 92.5t-89 88.5z" />
<glyph unicode="&#x152;" horiz-adv-x="2058" d="M43 700q0 166 63.5 305.5t180.5 235.5q106 86 230 131t257 45q233 0 369 -123l-10 107q111 -4 218 -7t214 -3q109 0 215 3t211 7l-78 -160q-76 4 -150.5 6t-150.5 2h-77t-77 -2l-8 -487q78 53 152.5 108.5t146.5 112.5q53 -70 111.5 -138.5t124.5 -135.5 q-74 -53 -147 -108.5t-140 -115.5q-59 68 -120.5 131.5t-127.5 126.5l8 -585q33 0 64.5 -1t64.5 -1q98 0 190.5 4t184.5 10l90 -170q-127 6 -248 8t-241 2q-111 0 -219.5 -2t-215.5 -6l15 127q-66 -72 -169.5 -109.5t-236.5 -37.5q-135 0 -252.5 43t-210.5 124 q-106 96 -168.5 242t-62.5 311zM473 811q0 -262 101.5 -436t291.5 -246q215 150 215 477q0 262 -105 437t-298 245q-98 -72 -151.5 -193.5t-53.5 -283.5z" />
<glyph unicode="&#x153;" horiz-adv-x="2058" d="M43 700q0 166 63.5 305.5t180.5 235.5q106 86 230 131t257 45q233 0 369 -123l-10 107q111 -4 218 -7t214 -3q109 0 215 3t211 7l-78 -160q-76 4 -150.5 6t-150.5 2h-77t-77 -2l-8 -487q78 53 152.5 108.5t146.5 112.5q53 -70 111.5 -138.5t124.5 -135.5 q-74 -53 -147 -108.5t-140 -115.5q-59 68 -120.5 131.5t-127.5 126.5l8 -585q33 0 64.5 -1t64.5 -1q98 0 190.5 4t184.5 10l90 -170q-127 6 -248 8t-241 2q-111 0 -219.5 -2t-215.5 -6l15 127q-66 -72 -169.5 -109.5t-236.5 -37.5q-135 0 -252.5 43t-210.5 124 q-106 96 -168.5 242t-62.5 311zM473 811q0 -262 101.5 -436t291.5 -246q215 150 215 477q0 262 -105 437t-298 245q-98 -72 -151.5 -193.5t-53.5 -283.5z" />
<glyph unicode="&#x178;" horiz-adv-x="1243" d="M33 1139l20 65q84 53 158 111.5t143 124.5q86 -150 184.5 -299.5t211.5 -298.5l389 598l129 -178l-412 -598q-2 -29 -2 -59v-60q0 -254 49 -545q-104 6 -209 6q-102 0 -202 -6l-46 35q31 233 31 440v58.5t-2 58.5q-221 295 -442 547zM256 1651q98 92 179 178 q43 -47 87 -91t91 -87q-43 -41 -87 -87.5t-91 -93.5q-45 47 -89.5 92.5t-89.5 88.5zM631 1651q98 92 178 178q43 -47 88 -91t93 -87q-47 -43 -91.5 -88.5t-89.5 -92.5q-45 47 -89 92.5t-89 88.5z" />
<glyph unicode="&#x2c6;" horiz-adv-x="1024" d="M135 1495l236 297h282l238 -297h-172l-207 156l-207 -156h-170z" />
<glyph unicode="&#x2dc;" horiz-adv-x="1024" d="M152 1522q57 248 227 247q23 0 42 -3t40 -7l143 -35q27 -6 53 -6q84 0 103 82h117q-25 -129 -80.5 -190.5t-153.5 -61.5q-35 0 -106 17l-123 28q-12 4 -24.5 4h-22.5q-82 0 -103 -75h-112z" />
<glyph unicode="&#x2000;" horiz-adv-x="991" />
<glyph unicode="&#x2001;" horiz-adv-x="1982" />
<glyph unicode="&#x2002;" horiz-adv-x="991" />
<glyph unicode="&#x2003;" horiz-adv-x="1982" />
<glyph unicode="&#x2004;" horiz-adv-x="660" />
<glyph unicode="&#x2005;" horiz-adv-x="495" />
<glyph unicode="&#x2006;" horiz-adv-x="330" />
<glyph unicode="&#x2007;" horiz-adv-x="330" />
<glyph unicode="&#x2008;" horiz-adv-x="247" />
<glyph unicode="&#x2009;" horiz-adv-x="396" />
<glyph unicode="&#x200a;" horiz-adv-x="110" />
<glyph unicode="&#x2010;" horiz-adv-x="614" d="M27 612v213q78 -2 149.5 -3t142.5 -1q70 0 136.5 1t130.5 3v-213q-66 4 -132.5 4h-136.5h-143.5t-146.5 -4z" />
<glyph unicode="&#x2011;" horiz-adv-x="614" d="M27 612v213q78 -2 149.5 -3t142.5 -1q70 0 136.5 1t130.5 3v-213q-66 4 -132.5 4h-136.5h-143.5t-146.5 -4z" />
<glyph unicode="&#x2012;" horiz-adv-x="614" d="M27 612v213q78 -2 149.5 -3t142.5 -1q70 0 136.5 1t130.5 3v-213q-66 4 -132.5 4h-136.5h-143.5t-146.5 -4z" />
<glyph unicode="&#x2013;" horiz-adv-x="1024" d="M0 633v170h1024v-170h-1024z" />
<glyph unicode="&#x2014;" horiz-adv-x="2048" d="M-14 633v170h2076v-170h-2076z" />
<glyph unicode="&#x2018;" horiz-adv-x="544" d="M96 1223q104 88 211 198q94 -109 201 -213l-105 -98q20 -61 43 -122.5t50 -127.5l-131 -86q-61 109 -129 220.5t-140 228.5z" />
<glyph unicode="&#x2019;" horiz-adv-x="544" d="M96 1208q47 49 96.5 101.5t102.5 111.5q49 -51 102.5 -101t110.5 -97q-72 -117 -139.5 -228.5t-128.5 -220.5l-131 86q29 66 50 128.5t40 121.5z" />
<glyph unicode="&#x201a;" horiz-adv-x="616" d="M111 180q47 49 97 102.5t103 112.5q49 -51 102.5 -102t110.5 -98q-76 -123 -142.5 -234t-125.5 -215l-133 86q29 70 51.5 132.5t40.5 117.5z" />
<glyph unicode="&#x201c;" horiz-adv-x="972" d="M96 1223q104 88 211 198q94 -109 201 -213l-105 -98q20 -61 43 -122.5t50 -127.5l-131 -86q-61 109 -129 220.5t-140 228.5zM522 1223q53 45 106.5 94t106.5 104q47 -53 96.5 -106t102.5 -107l-105 -98q20 -61 43 -122.5t50 -127.5l-131 -86q-61 109 -129 220.5 t-140 228.5z" />
<glyph unicode="&#x201d;" horiz-adv-x="972" d="M96 1208q47 49 96.5 101.5t102.5 111.5q49 -51 102.5 -101t110.5 -97q-72 -117 -139.5 -228.5t-128.5 -220.5l-131 86q29 66 50 128.5t40 121.5zM522 1208q96 96 201 213q49 -51 101.5 -101t109.5 -97q-72 -117 -139.5 -228.5t-128.5 -220.5l-131 86q53 129 92 250z" />
<glyph unicode="&#x201e;" horiz-adv-x="1056" d="M111 180q47 49 97 102.5t103 112.5q49 -51 102.5 -102t110.5 -98q-76 -123 -142.5 -234t-125.5 -215l-133 86q29 70 51.5 132.5t40.5 117.5zM551 180q47 49 97 102.5t104 112.5q49 -51 102 -102t111 -98q-76 -121 -142.5 -233t-126.5 -216l-131 86q29 70 51.5 132.5 t38.5 117.5z" />
<glyph unicode="&#x2022;" horiz-adv-x="1208" d="M307 762q0 61 23.5 114.5t63.5 93.5t94.5 63.5t115.5 23.5t114.5 -23.5t93.5 -63.5t63.5 -93.5t23.5 -114.5t-23.5 -114.5t-63.5 -94.5t-94 -64.5t-116 -23.5q-61 0 -115.5 23.5t-94.5 63.5t-62.5 94.5t-22.5 115.5z" />
<glyph unicode="&#x2026;" horiz-adv-x="2048" d="M123 178q55 51 109.5 105.5t107.5 113.5q53 -57 107.5 -111.5t113.5 -107.5q-55 -53 -110.5 -107.5t-110.5 -111.5q-51 53 -104.5 107.5t-112.5 111.5zM805 178q55 51 109.5 105.5t107.5 113.5q53 -57 107.5 -111.5t113.5 -107.5q-55 -53 -110.5 -107.5t-110.5 -111.5 q-51 53 -104.5 107.5t-112.5 111.5zM1489 178q55 51 109.5 105.5t107.5 113.5q53 -57 107.5 -111.5t113.5 -107.5q-55 -53 -110.5 -107.5t-110.5 -111.5q-51 53 -104.5 107.5t-112.5 111.5z" />
<glyph unicode="&#x202f;" horiz-adv-x="396" />
<glyph unicode="&#x2039;" horiz-adv-x="598" d="M57 688l346 442l148 -155l-240 -287l242 -289l-147 -153z" />
<glyph unicode="&#x203a;" horiz-adv-x="598" d="M57 977l150 151l346 -442l-346 -440l-146 153l240 287z" />
<glyph unicode="&#x205f;" horiz-adv-x="495" />
<glyph unicode="&#x2122;" horiz-adv-x="1705" d="M207 1350v112h485v-112h-168v-435h-149v435h-168zM803 915v547h196l127 -332l123 332h197v-547h-135v410l-154 -410h-61l-158 410v-410h-135z" />
<glyph unicode="&#x25fc;" horiz-adv-x="1443" d="M0 0v1444h1444v-1444h-1444z" />
</font>
</defs>
</svg>
